<?xml version="1.0" encoding="utf-8"?>
<!-- Generator: Adobe Illustrator 16.0.0, SVG Export Plug-In . SVG Version: 6.00 Build 0)  -->
<!DOCTYPE svg PUBLIC "-//W3C//DTD SVG 1.1//EN" "http://www.w3.org/Graphics/SVG/1.1/DTD/svg11.dtd">
<svg version="1.1" id="Layer_1" xmlns="http://www.w3.org/2000/svg" xmlns:xlink="http://www.w3.org/1999/xlink" x="0px" y="0px"
	 width="200px" height="200px" viewBox="0 0 200 200" enable-background="new 0 0 200 200" xml:space="preserve">
<g id="background">
	<rect fill="#2E9FFF" width="200" height="200"/>
</g>
<g id="Layer_2">
</g>
<path fill="#FFFFFF" d="M102.535,167.5c-16.518,0-31.621-6.036-43.298-16.021L30.5,155.405l11.102-27.401
	c-3.868-8.535-6.038-18.01-6.038-28.004c0-37.277,29.984-67.5,66.971-67.5c36.984,0,66.965,30.223,66.965,67.5
	C169.5,137.284,139.52,167.5,102.535,167.5z M139.102,99.807v-0.188c0-19.479-13.736-33.367-37.42-33.367h-25.58v67.5h25.201
	C125.171,133.753,139.102,119.284,139.102,99.807L139.102,99.807z M101.964,117.168h-7.482V82.841h7.482
	c10.989,0,18.283,6.265,18.283,17.07v0.188C120.247,110.995,112.953,117.168,101.964,117.168z"/>
</svg>
