<svg xmlns:xlink="http://www.w3.org/1999/xlink" xmlns="http://www.w3.org/2000/svg" class="ynab-new-icon sidebar-nav-ynab" width="24" height="24"><defs><symbol id="icon_sprite_ynab_logo" viewBox="0 0 24 24" fill="none" xmlns="http://www.w3.org/2000/svg">
<path d="M19.3727 10.8342H14.9835C14.8904 10.8342 14.7742 10.8986 14.7259 10.9773L12.0956 15.2594C12.0473 15.3381 11.9687 15.3377 11.9204 15.2594L9.31785 10.9782C9.27 10.8995 9.15424 10.8347 9.0611 10.8347H4.65145C4.55831 10.8347 4.52415 10.897 4.57627 10.9736L9.77582 18.6192C9.82794 18.6954 9.87024 18.8335 9.87024 18.9252V23.515C9.87024 23.6067 9.94669 23.6821 10.0398 23.6821H13.9825C14.0757 23.6821 14.1521 23.6067 14.1521 23.515V18.9252C14.1521 18.8335 14.1949 18.6954 14.2466 18.6192L19.4474 10.9736C19.4995 10.8974 19.4658 10.8342 19.3727 10.8342Z" fill="#19223C"></path>
<path d="M11.7103 4.21933C11.8248 4.28204 11.9359 4.33297 11.9944 4.33297C12.053 4.33297 12.1512 4.29804 12.2777 4.21933C14.7636 2.65055 12.6951 0.72525 11.9944 0C11.2934 0.72525 9.22484 2.65055 11.7103 4.21933Z" fill="#19223C"></path>
<path d="M9.0959 9.94212C9.23731 9.93076 9.36845 9.91097 9.421 9.87603C9.47397 9.8411 9.54105 9.75186 9.60684 9.6058C10.8893 6.71996 7.851 6.21064 6.777 5.97198C6.58775 7.0407 5.8991 10.001 9.0959 9.94212Z" fill="#19223C"></path>
<path d="M5.02311 9.31186C5.14273 9.23651 5.24911 9.15907 5.27944 9.10392C5.30977 9.04878 5.32686 8.93849 5.31575 8.77938C5.08036 5.63762 2.15269 6.58638 1.09023 6.87051C1.43028 7.90219 2.22575 10.8364 5.02311 9.31186Z" fill="#19223C"></path>
<path d="M5.53065 14.58C5.58148 14.4495 5.61993 14.3245 5.61096 14.2626C5.60198 14.2003 5.54902 14.1022 5.44435 13.9806C3.35957 11.5923 1.57768 14.0698 0.894574 14.9205C1.79043 15.551 4.20074 17.4443 5.53065 14.58Z" fill="#19223C"></path>
<path d="M11.9941 5.01562C11.4455 5.62554 9.82684 7.24357 11.7715 8.56232C11.8612 8.61493 11.9479 8.65787 11.9941 8.65787C12.0402 8.65787 12.1167 8.6284 12.2158 8.56232C14.1609 7.24357 12.5426 5.62512 11.9941 5.01562Z" fill="#19223C"></path>
<path d="M6.63957 15.9224C6.60839 15.901 6.54218 15.8854 6.44349 15.8845C4.49542 15.8765 4.81967 17.7235 4.89999 18.3911C5.56302 18.232 7.43291 17.8856 6.74425 16.0904C6.70836 16.0133 6.67076 15.9439 6.63957 15.9224Z" fill="#19223C"></path>
<path d="M11.7715 12.7597C11.8612 12.8123 11.9479 12.8552 11.9941 12.8552C12.0402 12.8552 12.1167 12.8258 12.2158 12.7597C14.1609 11.4409 12.5426 9.82247 11.9941 9.21298C11.4455 9.82289 9.82684 11.4409 11.7715 12.7597Z" fill="#19223C"></path>
<path d="M3.56507 11.7767C3.62616 11.6934 3.67742 11.6122 3.68169 11.5671C3.68597 11.5221 3.66289 11.4442 3.60522 11.3411C2.44663 9.31392 0.665591 10.7573 0 11.2409C0.567333 11.834 2.05787 13.5673 3.56507 11.7767Z" fill="#19223C"></path>
<path d="M5.56942 6.19498C5.67366 6.18782 5.76977 6.17435 5.80737 6.14825C5.84496 6.12216 5.89111 6.05524 5.93426 5.94537C6.76817 3.76878 4.50182 3.34955 3.69867 3.15718C3.60127 3.9662 3.20866 6.2055 5.56942 6.19498Z" fill="#19223C"></path>
<path d="M8.76157 5.49496C8.87649 5.51474 8.98502 5.52569 9.03329 5.50759C9.08157 5.48949 9.14991 5.42888 9.22681 5.3207C10.7306 3.1761 8.38093 2.11664 7.55984 1.69361C7.23174 2.54767 6.19148 4.87789 8.76157 5.49496Z" fill="#19223C"></path>
<path d="M14.5783 9.87638C14.6313 9.91131 14.762 9.93068 14.9034 9.94246C18.0998 10.0014 17.4111 7.04146 17.2223 5.97274C16.1483 6.21098 13.11 6.72072 14.3925 9.60657C14.4582 9.75221 14.5253 9.84144 14.5783 9.87638Z" fill="#19223C"></path>
<path d="M18.6847 8.77921C18.6736 8.93832 18.6907 9.04861 18.7211 9.10375C18.7514 9.15889 18.8578 9.23675 18.9774 9.31168C21.7752 10.8358 22.5706 7.90201 22.9103 6.87033C21.8478 6.58663 18.9201 5.63744 18.6847 8.77921Z" fill="#19223C"></path>
<path d="M18.5541 13.9806C18.4494 14.1022 18.3965 14.2007 18.3875 14.2626C18.3785 14.3245 18.4174 14.4495 18.4682 14.58C19.7981 17.4443 22.208 15.551 23.1039 14.9205C22.4208 14.0698 20.6393 11.5923 18.5541 13.9806Z" fill="#19223C"></path>
<path d="M17.5555 15.8838C17.4568 15.8846 17.3906 15.9006 17.3594 15.9217C17.3282 15.9427 17.2902 16.0122 17.2543 16.0896C16.5661 17.8848 18.4355 18.2313 19.0986 18.3904C19.1789 17.7232 19.5036 15.8758 17.5555 15.8838Z" fill="#19223C"></path>
<path d="M20.3944 11.3415C20.3363 11.4447 20.3136 11.5225 20.3179 11.5676C20.3222 11.6126 20.373 11.6939 20.4345 11.7772C21.9417 13.5674 23.4327 11.8344 24 11.2414C23.3344 10.7581 21.5529 9.31481 20.3944 11.3415Z" fill="#19223C"></path>
<path d="M18.192 6.14825C18.2296 6.17393 18.3257 6.1874 18.4299 6.19498C20.7907 6.2055 20.3985 3.9662 20.3011 3.15718C19.4979 3.34955 17.2312 3.76921 18.0655 5.94537C18.1082 6.05524 18.1539 6.12258 18.192 6.14825Z" fill="#19223C"></path>
<path d="M14.9662 5.50759C15.0145 5.52569 15.1226 5.51474 15.238 5.49496C17.8081 4.87789 16.7678 2.54725 16.4397 1.69361C15.619 2.11664 13.2694 3.1761 14.7727 5.3207C14.8496 5.42888 14.918 5.48949 14.9662 5.50759Z" fill="#19223C"></path>
</symbol></defs>
<!---->  <use href="#icon_sprite_ynab_logo" fill="#FFFFFF"></use>
  
        <title>My Budget</title>
      
</svg>