<svg height="255" preserveAspectRatio="xMidYMid" viewBox="0 0 256 255" width="256" xmlns="http://www.w3.org/2000/svg"><path d="m128.636514 155.746615v-155.23361889h-3.522242v.06873152l-124.60824865 64.03287157v60.8642488h.00597665v3.234366h-.00597665v60.868233l124.60824865 64.747082h3.842989v-98.581914z" fill="#ff8e4a"/><path d="m129.941416 254.328529 125.568498-64.747082v-124.9668478l-125.887253-64.10160309h-2.243237v253.81055289h2.243237" fill="#f48746"/><path d="m109.097837 87.2551595h36.19561v59.2077195h-36.19561z" fill="#ff8e4a"/><path d="m66.1735097 188.397074h14.8639378c9.4102412 0 12.6087471-2.238257 15.6189883-9.988981l8.2796572-21.353587h45.159596l8.280653 21.353587c3.011238 7.750724 6.396016 9.988981 15.805261 9.988981h14.677665v-19.114335h-3.011237c-3.19751 0-4.704622-.689307-5.831222-3.790194l-39.516638-99.3658524h-25.779299l-39.703907 99.3658524c-1.1285915 3.100887-2.632716 3.790194-5.833214 3.790194h-3.0102413zm44.4075333-49.939922 11.478163-30.655253c2.445448-6.714771 5.269417-18.2556889 5.269417-18.2556889h.375533s2.822972 11.5409179 5.269416 18.2556889l11.478163 30.655253z" fill="#fff"/><path d="m231.204856 150.082739v-51.8086223c.235082 4.5233303 2.970397 16.8432063 24.305058 27.8512063v11.653479zm0-53.1623343v1.353712c-.029883-.5926848-.01793-1.0479066 0-1.353712zm.041837-.4392841s-.022911.1534008-.041837.4392841v-.4392841z" fill="#d4763c"/><path d="m231.155051 94.3016342c-.013946.9931207.05877 1.8945993.049805 2.0460078-.01793.2480312-2.220327 16.094132 24.305058 29.777681v-60.863253c-23.325883 12.0349884-24.449494 25.7414475-24.354863 29.0395642" fill="#ff8e4a"/></svg>