<svg xmlns="http://www.w3.org/2000/svg" width="420.095" height="77" viewBox="0 0 420.095 77"><g transform="translate(-561 -471)"><g transform="translate(-479.103 381)"><g transform="translate(1040.104 94)"><g transform="translate(113.835 10.269)"><path d="M3710.39,2708.656a1.8,1.8,0,0,1,.459,1.322v4.882q0,1.551-1.723,1.724a11.232,11.232,0,0,0-3.676.891,9.643,9.643,0,0,0-3.333,2.384q-2.067,2.242-2.068,6.549v12.237a1.589,1.589,0,0,1-1.723,1.724h-5.113a1.588,1.588,0,0,1-1.722-1.724V2710.5a1.588,1.588,0,0,1,1.722-1.724h5.113a1.59,1.59,0,0,1,1.723,1.724v2.469a11.068,11.068,0,0,1,4.079-3.332,14.583,14.583,0,0,1,5-1.379,1.545,1.545,0,0,1,1.26.4Z" transform="translate(-3691.49 -2696.937)" fill="#51626e"/><path d="M3725.757,2739.507a15.99,15.99,0,0,1-6.492-5.171q-2.816-3.675-2.815-9.651a16.265,16.265,0,0,1,2.269-8.617,15.463,15.463,0,0,1,6.175-5.773,18.586,18.586,0,0,1,8.733-2.041,17.434,17.434,0,0,1,7.956,1.868,15.739,15.739,0,0,1,6.061,5.373,12.819,12.819,0,0,1,2.01,4.48,25.129,25.129,0,0,1,.459,5.113,3.16,3.16,0,0,1-.631,2.012,2.136,2.136,0,0,1-1.781.8H3725.01a6.162,6.162,0,0,0,3.159,4.366,11.22,11.22,0,0,0,5.458,1.378,10.526,10.526,0,0,0,4.021-.688,9.626,9.626,0,0,0,2.987-1.954,2.214,2.214,0,0,1,1.378-.632,1.853,1.853,0,0,1,1.034.344l3.735,2.183a1.49,1.49,0,0,1,.919,1.265,1.972,1.972,0,0,1-.46,1.09,17.42,17.42,0,0,1-13.615,5.917A19.634,19.634,0,0,1,3725.757,2739.507Zm2.04-22a6.112,6.112,0,0,0-2.557,4.309h15.8a6.2,6.2,0,0,0-1.149-2.929,7.362,7.362,0,0,0-2.586-2.24,7.779,7.779,0,0,0-3.733-.863,9.268,9.268,0,0,0-5.773,1.716Z" transform="translate(-3694.39 -2696.938)" fill="#51626e"/><path d="M3809.491,2711.694q3.3,3.5,3.3,10v16.947a1.592,1.592,0,0,1-1.724,1.724h-5.228a1.589,1.589,0,0,1-1.723-1.724V2721.69a6.37,6.37,0,0,0-1.637-4.826,6.294,6.294,0,0,0-4.51-1.551,5.557,5.557,0,0,0-4.25,1.867,8.2,8.2,0,0,0-1.782,5.6v15.855a1.589,1.589,0,0,1-1.723,1.724h-5.228a1.589,1.589,0,0,1-1.724-1.724V2721.69a6.44,6.44,0,0,0-1.609-4.826,6.185,6.185,0,0,0-4.479-1.551,5.511,5.511,0,0,0-4.4,1.982q-1.7,1.983-1.7,6.348l-.056,14.994a1.524,1.524,0,0,1-1.724,1.724h-5.114a1.59,1.59,0,0,1-1.723-1.724v-28.149a1.591,1.591,0,0,1,1.723-1.724h5.114a1.591,1.591,0,0,1,1.724,1.724v1.148a14.01,14.01,0,0,1,4.021-2.47,11.369,11.369,0,0,1,4.309-.976q6.664,0,10.167,4.309a11.851,11.851,0,0,1,4.424-3.189,14.575,14.575,0,0,1,5.745-1.12Q3806.188,2708.189,3809.491,2711.694Z" transform="translate(-3699.736 -2696.93)" fill="#51626e"/><path d="M3836.326,2738.9a16.747,16.747,0,0,1-6.234-6,15.936,15.936,0,0,1,0-16.488,16.907,16.907,0,0,1,6.263-6.031,17.643,17.643,0,0,1,23.5,6.031,15.756,15.756,0,0,1-.029,16.431,17.638,17.638,0,0,1-23.5,6.061Zm4.222-22a8.55,8.55,0,0,0-3.159,3.188,9.815,9.815,0,0,0-.029,9.163,8.086,8.086,0,0,0,3.131,3.189,8.569,8.569,0,0,0,11.948-3.218,9.514,9.514,0,0,0,1.15-4.595,9.209,9.209,0,0,0-1.121-4.51,8.5,8.5,0,0,0-3.132-3.246,8.758,8.758,0,0,0-4.423-1.148,8.482,8.482,0,0,0-4.365,1.17Z" transform="translate(-3707.325 -2696.93)" fill="#51626e"/><path d="M3885.732,2740.509q-.691,0-1.207-.978l-14.707-28.5a1.932,1.932,0,0,1-.231-.861q0-1.207,1.5-1.207h5.8a2.083,2.083,0,0,1,2.069,1.264l6.721,14.191,6.721-14.191a2.081,2.081,0,0,1,2.068-1.264h5.86q1.493,0,1.493,1.207a1.942,1.942,0,0,1-.23.861l-14.706,28.5Q3886.419,2740.51,3885.732,2740.509Z" transform="translate(-3712.181 -2697.02)" fill="#51626e"/><path d="M3918.285,2739.507a15.98,15.98,0,0,1-6.491-5.171q-2.817-3.675-2.816-9.651a16.268,16.268,0,0,1,2.269-8.617,15.458,15.458,0,0,1,6.176-5.773,18.582,18.582,0,0,1,8.733-2.04,17.433,17.433,0,0,1,7.955,1.868,15.734,15.734,0,0,1,6.061,5.372,12.792,12.792,0,0,1,2.012,4.48,25.141,25.141,0,0,1,.459,5.113,3.159,3.159,0,0,1-.632,2.012,2.134,2.134,0,0,1-1.781.8h-22.691a6.16,6.16,0,0,0,3.159,4.366,11.218,11.218,0,0,0,5.458,1.378,10.531,10.531,0,0,0,4.021-.688,9.634,9.634,0,0,0,2.989-1.954,2.215,2.215,0,0,1,1.379-.632,1.856,1.856,0,0,1,1.034.344l3.734,2.183a1.488,1.488,0,0,1,.919,1.265,1.975,1.975,0,0,1-.459,1.09,17.421,17.421,0,0,1-13.615,5.917,19.627,19.627,0,0,1-7.872-1.662Zm2.04-22a6.112,6.112,0,0,0-2.557,4.309h15.8a6.189,6.189,0,0,0-1.148-2.929,7.363,7.363,0,0,0-2.585-2.24,7.776,7.776,0,0,0-3.734-.863,9.272,9.272,0,0,0-5.776,1.716Z" transform="translate(-3716.757 -2696.938)" fill="#51626e"/><path d="M3962.976,2738.45a1.774,1.774,0,0,1-1.264.43h-5.056a1.589,1.589,0,0,1-1.723-1.723v-39.984a1.589,1.589,0,0,1,1.723-1.723h5.056a1.589,1.589,0,0,1,1.724,1.723v13.385a9.648,9.648,0,0,1,3.906-2.873,14.22,14.22,0,0,1,5.688-1.092,16.091,16.091,0,0,1,8.388,2.155,14.525,14.525,0,0,1,5.572,5.946,18.5,18.5,0,0,1,1.9,8.387,18.271,18.271,0,0,1-1.9,8.388,14.514,14.514,0,0,1-5.458,5.916,16.335,16.335,0,0,1-8.5,2.184,14.528,14.528,0,0,1-5.745-1.149,9.1,9.1,0,0,1-3.849-2.7v1.551A1.539,1.539,0,0,1,3962.976,2738.45Zm2.441-8.847a8.464,8.464,0,0,0,6.349,2.385,8.317,8.317,0,0,0,6.262-2.5,8.838,8.838,0,0,0,2.412-6.4,9.013,9.013,0,0,0-2.355-6.491,9.28,9.28,0,0,0-12.609,0,10.164,10.164,0,0,0-.058,13.012Z" transform="translate(-3722.095 -2695.45)" fill="#bbc0c4"/><path d="M4033.081,2709.223a1.711,1.711,0,0,1,.459,1.265v27.059q0,6.892-4.222,10.8t-11.749,3.906a24.171,24.171,0,0,1-13.729-3.792,1.49,1.49,0,0,1-.8-1.263,1.916,1.916,0,0,1,.4-1.093l2.24-3.275a1.626,1.626,0,0,1,1.321-.8,2.123,2.123,0,0,1,1.092.345,15.161,15.161,0,0,0,4.136,1.867,17.024,17.024,0,0,0,4.711.66q8.1,0,8.1-7.353v-.517a13.4,13.4,0,0,1-8.847,2.814,17.951,17.951,0,0,1-8.731-2.067,14.591,14.591,0,0,1-5.861-5.745,16.365,16.365,0,0,1-2.011-7.986,16.059,16.059,0,0,1,2.01-8.047,14.8,14.8,0,0,1,5.8-5.688,17.284,17.284,0,0,1,8.791-2.125,13.394,13.394,0,0,1,8.847,2.815v-.516a1.59,1.59,0,0,1,1.723-1.724h5.055a1.714,1.714,0,0,1,1.266.461Zm-11.979,22.261a8.184,8.184,0,0,0,3.131-3.13,8.854,8.854,0,0,0,.029-8.675,8.256,8.256,0,0,0-3.131-3.1,8.927,8.927,0,0,0-4.424-1.091,8.472,8.472,0,0,0-6.262,2.412,9.191,9.191,0,0,0-.057,12.351,8.536,8.536,0,0,0,6.319,2.355,8.761,8.761,0,0,0,4.393-1.122Z" transform="translate(-3727.283 -2696.93)" fill="#bbc0c4"/><path d="M3640.414,2731.809l-5.131-3.025-31.2,18.389a3.848,3.848,0,0,1-3.906,0l-31.2-18.385-5.125,3.021a2.355,2.355,0,0,0,0,4.059l36.329,21.41a3.847,3.847,0,0,0,3.905,0l36.328-21.41a2.355,2.355,0,0,0,0-4.059Z" transform="translate(-3676.527 -2699.322)" fill="#bbc0c4"/><path d="M3640.414,2717.247l-36.328,21.41a3.847,3.847,0,0,1-3.905,0l-36.329-21.41a2.356,2.356,0,0,1,0-4.06l36.329-21.409a3.842,3.842,0,0,1,3.9,0l36.328,21.409a2.356,2.356,0,0,1,0,4.06Z" transform="translate(-3676.527 -2694.961)" fill="#55626d"/></g></g><rect width="420" height="77" transform="translate(1040.104 90)" fill="none"/></g></g></svg>