<svg xmlns="http://www.w3.org/2000/svg" xmlns:xlink="http://www.w3.org/1999/xlink" viewBox="0 0 229.2 57.3">
  <defs>
    <style>
      .cls-1 {        fill: #2E3D59;      }      .cls-2 {        fill: #f5d05e;      }
    </style>
  </defs>
  <g>
    <g id="Ebene_1">
      <a>
        <path id="fullLogo" class="cls-1" d="M16.3,40.4c-.2.5-.6.8-1.1.8h-4.3c-.5,0-1-.2-1.2-.8L0,17.9c-.2-.4.1-.8.5-.8h4.3c.5,0,1,.2,1.1.8l6.9,16.6,6.9-16.6c.2-.5.6-.8,1.1-.8h4.3c.4,0,.7.4.5.8l-9.6,22.5h0Z"/>
      </a>
      <path id="fullLogo-2" class="cls-1" d="M219.7,19.2c-5.3,0-9.6-4.3-9.6-9.6S214.4,0,219.7,0s9.6,4.3,9.6,9.6-4.3,9.6-9.6,9.6ZM219.7,1c-4.7,0-8.6,3.8-8.6,8.6s3.8,8.6,8.6,8.6,8.6-3.8,8.6-8.6-3.8-8.6-8.6-8.6Z"/>
      <path id="fullLogo-3" class="cls-2" d="M185.7,35.9c-7.8,0-14.2-6.4-14.2-14.2s6.4-14.2,14.2-14.2,14.2,6.4,14.2,14.2-.8,5.3-2.2,7.5l-2.2-2.1c-1.4-1.3-3.7-1.3-5,.1-1.3,1.4-1.3,3.7.1,5l2,1.8c-2,1.1-4.4,1.8-6.9,1.8M202.9,34c2.5-3.5,4-7.7,4-12.3,0-11.7-9.5-21.2-21.2-21.2s-21.2,9.5-21.2,21.2,9.5,21.2,21.2,21.2,8.7-1.4,12.1-3.8l3.1,2.9c.7.6,1.6,1,2.4,1s1.9-.4,2.6-1.1c1.3-1.4,1.3-3.7-.1-5l-2.9-2.7h0Z"/>
      <path id="fullLogo-4" class="cls-1" d="M37.8,40.4c0,.5-.3.8-.8.8h-3.9c-.5,0-.8-.3-.8-.8v-22.4c0-.5.3-.8.8-.8h3.9c.5,0,.8.3.8.8v22.4ZM35,4.2c1.9,0,3.4,1.5,3.4,3.4s-1.5,3.4-3.4,3.4-3.4-1.5-3.4-3.4,1.5-3.4,3.4-3.4"/>
      <a>
        <path id="fullLogo-5" class="cls-1" d="M106.8,29.9v-11.9c0-.5.3-.8.8-.8h3.9c.5,0,.8.3.8.8v11.9c0,8-5.1,12-11.8,12s-11.8-4-11.8-12v-11.9c0-.5.3-.8.8-.8h3.9c.5,0,.8.3.8.8v11.9c0,5.5,3.6,6.7,6.3,6.7s6.3-1.2,6.3-6.7"/>
      </a>
      <path id="fullLogo-6" class="cls-1" d="M131.7,21.7c-3.1,0-7.2,1.8-7.2,7.5s3.4,7.5,6.4,7.6c3,.2,7.7-1.5,7.7-7.5s-3.9-7.6-7-7.6M144.3,40.4c0,.5-.3.8-.8.8h-3.9c-.5,0-.8-.3-.8-.8v-2.4c-2,3.2-5.8,3.9-8.2,3.9-7.5,0-11.6-6-11.6-12.5s5.7-12.9,12.8-12.9,12.5,4.3,12.5,13v11h0Z"/>
      <a>
        <path id="fullLogo-7" class="cls-1" d="M156.8,4.2h-3.9c-.5,0-.8.3-.8.8v35.3c0,.5.3.8.8.8h3.9c.5,0,.8-.3.8-.8V5c0-.5-.3-.8-.8-.8"/>
      </a>
      <a>
        <path id="fullLogo-8" class="cls-1" d="M83.1,17.1h-6.4V5c0-.5-.3-.8-.8-.8h-3.9c-.5,0-.8.3-.8.8v12.1h-6.4c-.5,0-.8.3-.8.8v3.6c0,.5.3.8.8.8h6.4v17.9c0,.5.3.8.8.8h3.9c.5,0,.8-.3.8-.8v-17.9h6.4c.5,0,.8-.3.8-.8v-3.6c0-.5-.3-.8-.8-.8"/>
      </a>
      <a>
        <path id="fullLogo-9" class="cls-1" d="M58.4,17.1h-6.4c-4.5,0-7.9,3.4-7.9,10v13.2c0,.5.3.8.8.8h3.9c.5,0,.8-.3.8-.8v-.9s0,0,0,0v-12.3c0-3,1.8-4.7,3.9-4.7h4.9c.5,0,.8-.3.8-.8v-3.6c0-.5-.3-.8-.8-.8"/>
      </a>
      <a>
        <path id="fullLogo-39" class="cls-1" d="M218.8,6.9c0-.1-.1-.2-.3-.2h-1c-.1,0-.2,0-.3.2l-2.3,5.3c0,0,0,.2.1.2h1c.1,0,.2,0,.3-.2l1.6-3.9,1.6,3.9c0,.1.1.2.3.2h1c0,0,.2,0,.1-.2l-2.3-5.3h0Z"/>
      </a>
      <path id="fullLogo-40" class="cls-1" d="M223.8,12.2c0,.1,0,.2-.2.2h-.9c-.1,0-.2,0-.2-.2v-5.3c0-.1,0-.2.2-.2h.9c.1,0,.2,0,.2.2v5.3Z"/>
      <path id="fullLogo-41" class="cls-1" d="M219.7,10.2c0,0,.1,0,.1.2v.9c0,.1,0,.2-.1.2h-3.4c0,0-.1,0-.1-.2v-.9c0-.1,0-.2.1-.2h3.4Z"/>
    </g>
  </g>
</svg>
