<svg xmlns:xlink="http://www.w3.org/1999/xlink" xmlns="http://www.w3.org/2000/svg" width="132" height="24" fill="none" viewBox="0 0 132 24"><path fill="#19191C" d="M38.557 19.495c2.16 0 3.25-1.113 3.725-1.87h.214c.094.805.664 1.562 1.779 1.562h2.111V16.82h-.545c-.38 0-.57-.213-.57-.545V6.776h-2.8v1.516h-.213c-.545-.758-1.684-1.824-3.772-1.824-3.321 0-5.789 2.748-5.789 6.514s2.515 6.513 5.86 6.513m.498-2.7c-1.969 0-3.51-1.445-3.51-3.79 0-2.297 1.494-3.86 3.487-3.86 1.898 0 3.487 1.397 3.487 3.86 0 2.108-1.352 3.79-3.463 3.79M48.04 24h2.799v-6.376h.213c.522.758 1.637 1.871 3.844 1.871 3.321 0 5.741-2.795 5.741-6.513 0-3.743-2.586-6.514-5.931-6.514-2.135 0-3.18 1.16-3.678 1.8h-.213V6.776h-2.776V24m6.263-7.134c-1.922 0-3.512-1.42-3.512-3.884 0-2.108 1.353-3.885 3.464-3.885 1.97 0 3.511 1.54 3.511 3.885 0 2.297-1.494 3.884-3.463 3.884M62.082 24h2.8v-6.376h.213c.522.758 1.637 1.871 3.843 1.871 3.321 0 5.51-2.795 5.51-6.513 0-3.743-2.355-6.514-5.7-6.514-2.135 0-3.179 1.16-3.677 1.8h-.214V6.776h-2.775zm6.263-7.134c-1.922 0-3.511-1.42-3.511-3.884 0-2.108 1.352-3.885 3.463-3.885 1.97 0 3.512 1.54 3.512 3.885 0 2.297-1.495 3.884-3.464 3.884m9.805 2.61h3.961l2.254-9.735h.143l2.253 9.735H90.7l3.153-12.412h-2.821l-2.254 9.759h-.214l-2.253-9.759h-3.725l-2.278 9.759h-.213l-2.23-9.759h-2.99l3.274 12.412m17.123 0h2.8V13.34c0-2.345 1.09-3.79 3.131-3.79h1.233V6.756h-.925c-1.59 0-2.8 1.09-3.274 2.132h-.19V7.064h-2.775zm21.057 0h2.183v-2.487h-2.159c-.854 0-1.21-.38-1.21-1.256V9.528h3.511V7.064h-3.511V3.582h-2.657v3.482h-2.325v2.464h2.159v6.229c0 2.63 1.589 3.719 4.009 3.719m9.693.019c2.586 0 4.864-1.279 5.67-3.86l-2.562-.616c-.451 1.373-1.755 2.084-3.131 2.084-2.041 0-3.393-1.326-3.417-3.41h9.419v-.782c0-3.695-2.301-6.443-6.097-6.443-3.346 0-6.216 2.63-6.216 6.537 0 3.79 2.538 6.49 6.334 6.49m-3.416-7.84c.166-1.492 1.518-2.747 3.298-2.747 1.708 0 3.108 1.066 3.25 2.747h-6.548"/><path fill="#19191C" fill-rule="evenodd" d="M108.916 19.476h-2.8V9.528h-2.182V7.064h4.982z" clip-rule="evenodd"/><path fill="#19191C" d="M107.309 5.342c1.02 0 1.779-.758 1.779-1.753 0-.971-.759-1.73-1.779-1.73-1.021 0-1.78.759-1.78 1.73 0 .995.759 1.753 1.78 1.753"/><path fill="#FD366E" d="M24.443 16.432v5.478H10.752c-3.989 0-7.472-2.203-9.335-5.478A11.041 11.041 0 0 1 0 11.695v-1.48a10.97 10.97 0 0 1 .381-2.247C1.661 3.368 5.82 0 10.751 0c4.934 0 9.092 3.37 10.371 7.967h-5.854c-.96-1.499-2.624-2.49-4.516-2.49s-3.555.991-4.516 2.49a5.47 5.47 0 0 0-.67 1.494 5.562 5.562 0 0 0-.202 1.494 5.5 5.5 0 0 0 1.69 3.983 5.32 5.32 0 0 0 3.698 1.494h13.69"/><path fill="#FD366E" d="M24.443 9.46v5.478h-9.994a5.5 5.5 0 0 0 1.691-3.983 5.56 5.56 0 0 0-.203-1.494h8.506"/></svg>