<svg width="555" height="110" viewBox="0 0 555 110" fill="none" xmlns="http://www.w3.org/2000/svg">
<path fill-rule="evenodd" clip-rule="evenodd" d="M541.011 83.513C541.347 87.339 544.407 92.209 549.709 92.209H552.811C554.014 92.209 555 91.2232 555 90.0197V21.7948H554.986C554.923 20.6454 553.974 19.7248 552.811 19.7248H543.199C542.036 19.7248 541.087 20.6454 541.023 21.7948H541.011V27.3385C535.122 20.0789 525.836 17.0657 516.525 17.0657C495.359 17.0657 478.202 34.2365 478.202 55.419C478.202 76.6027 495.359 93.7741 516.525 93.7741V93.7759C525.836 93.7759 535.983 90.1606 541.01 83.5042L541.011 83.513V83.513ZM516.562 80.3509C503.101 80.3509 492.188 69.1896 492.188 55.4192C492.188 41.6511 503.101 30.4892 516.562 30.4892C530.022 30.4892 540.934 41.6511 540.934 55.4192C540.934 69.1896 530.022 80.3509 516.562 80.3509V80.3509Z" fill="#690031"/>
<path fill-rule="evenodd" clip-rule="evenodd" d="M466.05 85.8589L466.045 50.5554H466.046C466.046 30.655 453.501 17.2299 433.497 17.2299C423.947 17.2299 416.119 22.7561 413.355 27.5032C412.757 23.7913 410.788 19.8896 404.681 19.8896H401.569C400.365 19.8896 399.382 20.876 399.382 22.0795V83.6835C399.382 83.6853 399.382 83.69 399.382 83.6929V90.3102H399.394C399.457 91.4579 400.408 92.3796 401.57 92.3796H411.182C411.33 92.3796 411.474 92.3621 411.613 92.3347C411.677 92.3225 411.736 92.2975 411.798 92.28C411.869 92.2579 411.944 92.241 412.012 92.213C412.097 92.1775 412.175 92.1298 412.255 92.0855C412.294 92.0617 412.334 92.0448 412.372 92.0197C412.468 91.958 412.556 91.8835 412.641 91.8072C412.655 91.7932 412.672 91.7839 412.686 91.7711C412.781 91.6785 412.868 91.5766 412.946 91.4707C412.946 91.4689 412.946 91.4689 412.946 91.4689C413.187 91.1382 413.333 90.7399 413.357 90.3102H413.369V50.0081C413.369 39.3201 422.028 30.655 432.709 30.655C443.389 30.655 452.047 39.3201 452.047 50.0081L452.056 83.6952L452.058 83.6835C452.058 83.7132 452.063 83.7441 452.063 83.7761V90.3102H452.076C452.139 91.4579 453.089 92.3796 454.251 92.3796H463.864C464.012 92.3796 464.156 92.3621 464.295 92.3347C464.352 92.3243 464.404 92.3015 464.46 92.2858C464.538 92.2631 464.619 92.2433 464.695 92.213C464.773 92.1804 464.845 92.135 464.92 92.0931C464.965 92.0675 465.013 92.0489 465.056 92.0197C465.145 91.9615 465.226 91.8911 465.306 91.8212C465.326 91.8026 465.349 91.7886 465.368 91.7694C465.459 91.6814 465.54 91.5865 465.615 91.487C465.62 91.4794 465.626 91.4736 465.632 91.466C465.868 91.1382 466.013 90.7428 466.038 90.3161C466.038 90.3131 466.039 90.3102 466.039 90.3102H466.052V85.86L466.05 85.8589" fill="#690031"/>
<path fill-rule="evenodd" clip-rule="evenodd" d="M365.94 83.5127C366.276 87.3387 369.336 92.2088 374.638 92.2088H377.74C378.943 92.2088 379.927 91.223 379.927 90.0195V21.7945H379.915C379.852 20.6452 378.901 19.7246 377.74 19.7246H368.128C366.965 19.7246 366.016 20.6452 365.951 21.7945H365.94V27.3382C360.05 20.0786 350.764 17.0654 341.453 17.0654C320.288 17.0654 303.131 34.2362 303.131 55.4188C303.131 76.6025 320.288 93.7739 341.453 93.7739V93.7756C350.764 93.7756 360.912 90.1604 365.939 83.504L365.94 83.5127V83.5127ZM341.49 80.3506C328.03 80.3506 317.117 69.1893 317.117 55.4189C317.117 41.6509 328.03 30.489 341.49 30.489C354.952 30.489 365.862 41.6509 365.862 55.4189C365.862 69.1893 354.952 80.3506 341.49 80.3506V80.3506Z" fill="#690031"/>
<path fill-rule="evenodd" clip-rule="evenodd" d="M246.284 73.7415C252.702 78.1905 259.706 80.3513 266.437 80.3513C272.85 80.3513 279.479 77.0242 279.479 71.2337C279.479 63.5024 265.033 62.2995 255.957 59.2124C246.88 56.1252 239.061 49.7437 239.061 39.4092C239.061 23.5956 253.14 17.0645 266.281 17.0645C274.607 17.0645 283.198 19.8121 288.767 23.7482C290.686 25.2027 289.517 26.8726 289.517 26.8726L284.201 34.4716C283.603 35.3276 282.559 36.067 281.059 35.1407C279.559 34.2149 274.298 30.4884 266.281 30.4884C258.263 30.4884 253.434 34.1939 253.434 38.7868C253.434 44.2943 259.711 46.0266 267.063 47.9038C279.875 51.36 293.852 55.5144 293.852 71.2337C293.852 85.1665 280.829 93.777 266.437 93.777C255.53 93.777 246.244 90.6654 238.456 84.9459C236.834 83.3208 237.967 81.8121 237.967 81.8121L243.257 74.2515C244.334 72.8378 245.691 73.331 246.284 73.7415" fill="#690031"/>
<path fill-rule="evenodd" clip-rule="evenodd" d="M209.331 83.5127C209.668 87.3387 212.728 92.2088 218.03 92.2088H221.132C222.334 92.2088 223.32 91.223 223.32 90.0195V21.7945H223.307C223.244 20.6452 222.294 19.7246 221.132 19.7246H211.519C210.357 19.7246 209.408 20.6452 209.343 21.7945H209.331V27.3382C203.442 20.0786 194.156 17.0654 184.845 17.0654C163.68 17.0654 146.522 34.2362 146.522 55.4188C146.522 76.6025 163.68 93.7739 184.845 93.7739V93.7756C194.156 93.7756 204.304 90.1604 209.33 83.504L209.331 83.5127V83.5127ZM184.883 80.3506C171.422 80.3506 160.509 69.1893 160.509 55.4189C160.509 41.6509 171.422 30.489 184.883 30.489C198.343 30.489 209.255 41.6509 209.255 55.4189C209.255 69.1893 198.343 80.3506 184.883 80.3506V80.3506Z" fill="#690031"/>
<path fill-rule="evenodd" clip-rule="evenodd" d="M92.794 58.0274C78.5507 58.0274 67.0041 69.5741 67.0041 83.8185C67.0041 98.0618 78.5507 109.608 92.794 109.608C107.037 109.608 118.584 98.0618 118.584 83.8185C118.584 69.5741 107.037 58.0274 92.794 58.0274V58.0274ZM25.7899 58.0298C11.5466 58.0298 0 69.5741 0 83.8186C0 98.0618 11.5466 109.608 25.7899 109.608C40.0338 109.608 51.581 98.0618 51.581 83.8186C51.581 69.5741 40.0338 58.0298 25.7899 58.0298V58.0298ZM85.0815 25.7894C85.0815 40.0338 73.5354 51.5816 59.2921 51.5816C45.0483 51.5816 33.5022 40.0338 33.5022 25.7894C33.5022 11.5478 45.0483 0 59.2921 0C73.5354 0 85.0815 11.5478 85.0815 25.7894V25.7894Z" fill="#FF584A"/>
</svg>
