<?xml version="1.0" standalone="no"?>
<!DOCTYPE svg PUBLIC "-//W3C//DTD SVG 20010904//EN"
 "http://www.w3.org/TR/2001/REC-SVG-20010904/DTD/svg10.dtd">
<svg version="1.0" xmlns="http://www.w3.org/2000/svg"
 width="200.000000pt" height="200.000000pt" viewBox="0 0 200.000000 200.000000"
 preserveAspectRatio="xMidYMid meet">

<g transform="translate(0.000000,200.000000) scale(0.100000,-0.100000)"
fill="#000000" stroke="none">
<path d="M0 1000 l0 -1000 1000 0 1000 0 0 1000 0 1000 -1000 0 -1000 0 0
-1000z m1162 460 c14 -11 113 -184 232 -408 228 -429 231 -439 175 -486 -35
-30 -30 -29 -140 -15 -89 12 -123 25 -152 56 -9 11 -72 147 -140 304 -113 263
-124 284 -149 287 -14 2 -29 10 -32 17 -8 21 67 214 94 242 28 29 78 30 112 3z
m-340 -148 c10 -10 72 -175 139 -367 114 -325 121 -351 108 -374 -8 -14 -27
-32 -41 -41 -25 -13 -34 -12 -126 18 -55 18 -111 43 -125 56 -19 17 -40 67
-76 182 -36 112 -58 164 -73 176 l-22 16 27 99 c63 224 66 232 95 248 31 17
69 12 94 -13z m-314 -219 c16 -15 26 -59 56 -243 42 -262 43 -285 17 -300 -11
-5 -24 -10 -30 -10 -19 0 -140 114 -150 141 -7 20 -4 76 10 191 10 90 19 171
19 181 0 18 33 57 49 57 5 0 18 -8 29 -17z"/>
</g>
</svg>
