<svg xmlns:xlink="http://www.w3.org/1999/xlink" xmlns="http://www.w3.org/2000/svg" id="b" data-name="Layer 2" width="327.714" height="120" viewBox="0 0 327.714 120">
  <defs>
    <style>
      .d {
        fill: #039649;
      }
    </style>
  </defs>
  <g id="c" data-name="Layer 1">
    <g>
      <path class="d" d="m52.39,120c-1.801,0-3.6-.6-5.101-1.5-2.1-1.5-3.6-4.2-3.6-6.9v-24.6L1.09,12.901C-.41,9.9-.41,6.601,1.391,4.2,2.891,1.5,5.89,0,8.89,0h78c2.999,0,5.698,1.5,7.199,4.2,1.801,2.702,1.801,6.3.301,9.002l-5.101,9h10.201c2.999,0,5.698,1.5,7.199,4.2,1.801,2.7,1.801,6.3.301,9l-29.701,51.3v18.599c0,3.899-2.399,6.9-5.999,8.099l-16.2,6.3c-.6.301-1.799.301-2.7.301M8.89,8.4q-.301.301-.301.602l42.301,73.798c1.199,2.1,1.199,3.299,1.199,4.501v23.998s.301.301.6,0l16.2-6.3h.6v-17.999c0-1.199,0-3.299,1.201-4.8l29.4-50.999c0-.301,0-.6-.301-.6l-53.699-.301,14.399,24.901,10.201-17.7c1.199-2.1,3.6-2.7,5.7-1.5,2.1,1.199,2.7,3.6,1.498,5.7l-11.998,20.699c-2.702,4.2-8.701,3.901-11.102.301l-17.4-30.9c-1.199-1.799-1.199-4.2,0-6.3,1.201-2.1,3.301-3.6,5.7-3.6h36.6l7.499-12.899s0-.301-.299-.602H8.89Z"/>
      <g>
        <path d="m181.725,48.737c0,3.089-.54,5.684-1.618,7.788-1.081,2.104-2.548,3.79-4.407,5.062-1.858,1.27-4.016,2.179-6.476,2.726-2.459.547-5.069.819-7.828.819h-24.591V6.521h23.034c2.676,0,5.198.24,7.561.718,2.364.479,4.427,1.311,6.189,2.5,1.762,1.189,3.149,2.787,4.16,4.795,1.011,2.008,1.517,4.53,1.517,7.562,0,3.17-.786,5.813-2.357,7.93-1.57,2.119-3.913,3.628-7.028,4.53,4.017.819,6.995,2.371,8.935,4.652s2.91,5.458,2.91,9.529Zm-33.813-17.624h10.533c1.612,0,3.033-.136,4.263-.41,1.23-.272,2.268-.738,3.115-1.393.846-.656,1.489-1.55,1.927-2.684.436-1.134.655-2.562.655-4.284,0-1.612-.267-2.923-.799-3.934-.532-1.01-1.25-1.809-2.152-2.398-.902-.587-1.967-.99-3.197-1.209s-2.542-.328-3.934-.328h-10.411v16.64Zm0,26.067h12.09c1.64,0,3.115-.169,4.427-.512,1.311-.342,2.424-.894,3.341-1.66.915-.764,1.612-1.748,2.091-2.951.478-1.202.716-2.663.716-4.385,0-1.802-.294-3.285-.881-4.447-.588-1.161-1.394-2.083-2.419-2.766s-2.227-1.154-3.606-1.414c-1.381-.26-2.863-.39-4.447-.39h-11.312v18.525Z"/>
        <path d="m202.257,9.555c0,.847-.151,1.633-.451,2.356-.3.724-.716,1.34-1.25,1.844-.532.507-1.167.902-1.905,1.189s-1.53.431-2.377.431c-.819,0-1.598-.144-2.336-.431s-1.388-.69-1.947-1.209c-.56-.519-.998-1.133-1.311-1.844-.315-.711-.471-1.489-.471-2.336s.156-1.626.471-2.336c.314-.711.744-1.325,1.291-1.845.546-.519,1.187-.922,1.925-1.209s1.53-.431,2.377-.431c.821,0,1.598.144,2.336.431s1.373.69,1.907,1.209c.532.52.955,1.134,1.27,1.845.314.71.471,1.489.471,2.336Zm-.778,12.705v42.871h-10.246V22.261h10.246Z"/>
        <path d="m254.186,61.935c0,3.361-.587,6.236-1.762,8.627-1.174,2.391-2.78,4.352-4.815,5.882-2.036,1.529-4.407,2.65-7.111,3.361-2.706.71-5.589,1.065-8.648,1.065-2.023,0-4.037-.157-6.045-.471-2.009-.314-3.908-.861-5.697-1.64-1.79-.778-3.395-1.837-4.816-3.175-1.421-1.34-2.555-3.021-3.402-5.042l8.074-3.525c.519,1.202,1.202,2.193,2.049,2.971.847.779,1.797,1.408,2.848,1.885,1.051.479,2.172.814,3.361,1.005s2.398.287,3.628.287c1.885,0,3.572-.232,5.062-.696,1.489-.466,2.752-1.169,3.79-2.111,1.039-.943,1.838-2.132,2.399-3.566.559-1.434.839-3.107.839-5.02v-6.393c-.71,1.229-1.592,2.336-2.643,3.319-1.053.983-2.207,1.824-3.464,2.52s-2.582,1.237-3.976,1.62c-1.393.383-2.814.574-4.263.574-3.033,0-5.737-.56-8.114-1.681-2.377-1.119-4.379-2.636-6.005-4.55-1.625-1.912-2.862-4.139-3.709-6.68-.847-2.542-1.27-5.233-1.27-8.074,0-2.814.451-5.491,1.353-8.033.901-2.542,2.192-4.775,3.873-6.702,1.68-1.927,3.709-3.464,6.086-4.611,2.376-1.147,5.054-1.721,8.033-1.721,2.923,0,5.621.594,8.094,1.782,2.472,1.189,4.473,3.082,6.004,5.677v-6.557h10.246v39.674Zm-33.198-19.017c0,1.666.252,3.265.758,4.795s1.237,2.876,2.193,4.037c.957,1.162,2.137,2.084,3.545,2.767s3.013,1.025,4.816,1.025c2.021,0,3.784-.355,5.287-1.066,1.502-.711,2.746-1.673,3.729-2.89.985-1.215,1.722-2.643,2.213-4.283.492-1.64.738-3.374.738-5.206,0-1.802-.239-3.49-.716-5.062-.479-1.57-1.203-2.93-2.173-4.077s-2.179-2.056-3.626-2.726c-1.449-.67-3.157-1.005-5.123-1.005-2.049,0-3.812.363-5.287,1.086-1.476.724-2.684,1.709-3.628,2.951-.943,1.243-1.633,2.699-2.069,4.365-.438,1.666-.656,3.429-.656,5.287Z"/>
        <path d="m277.096,9.555c0,.847-.151,1.633-.451,2.356-.3.724-.716,1.34-1.25,1.844-.532.507-1.167.902-1.905,1.189s-1.53.431-2.377.431c-.819,0-1.598-.144-2.336-.431s-1.388-.69-1.947-1.209c-.56-.519-.998-1.133-1.311-1.844-.315-.711-.471-1.489-.471-2.336s.156-1.626.471-2.336c.314-.711.744-1.325,1.291-1.845.546-.519,1.187-.922,1.925-1.209s1.53-.431,2.377-.431c.821,0,1.598.144,2.336.431s1.373.69,1.907,1.209c.532.52.955,1.134,1.27,1.845.314.71.471,1.489.471,2.336Zm-.778,12.705v42.871h-10.246V22.261h10.246Z"/>
        <path d="m308.451,29.801c-1.585,0-2.999.24-4.243.718-1.243.479-2.288,1.162-3.135,2.049-.847.889-1.496,1.961-1.947,3.217-.451,1.258-.676,2.651-.676,4.181v25.165h-10.246V22.261h10.246v6.803c.683-1.338,1.537-2.492,2.562-3.462,1.025-.97,2.165-1.769,3.422-2.399,1.257-.627,2.59-1.091,3.997-1.393,1.406-.3,2.82-.451,4.241-.451,2.623,0,4.884.431,6.783,1.291s3.464,2.049,4.694,3.565c1.229,1.517,2.131,3.307,2.704,5.37s.861,4.311.861,6.742v26.805h-10.328v-25.822c0-3.005-.711-5.341-2.132-7.008-1.421-1.666-3.688-2.5-6.803-2.5Z"/>
      </g>
      <g>
        <path d="m152.871,102.12c0,1.138-.168,2.221-.507,3.25-.337,1.028-.828,1.935-1.471,2.72s-1.436,1.41-2.379,1.874-2.021.696-3.234.696c-.579,0-1.155-.061-1.723-.183-.569-.121-1.107-.306-1.613-.553-.505-.247-.974-.561-1.407-.941s-.801-.822-1.107-1.328v2.72h-2.625v-24.446h2.625v10.689c.273-.464.632-.882,1.076-1.257.442-.374.93-.696,1.463-.964.531-.27,1.082-.477,1.652-.626.569-.146,1.122-.22,1.66-.22,1.244,0,2.34.227,3.289.679.95.454,1.743,1.068,2.38,1.843s1.117,1.685,1.44,2.728c.321,1.044.482,2.151.482,3.321Zm-13.536.126c0,.917.123,1.756.371,2.515.249.759.614,1.415,1.1,1.968.485.553,1.079.984,1.787,1.289.706.306,1.517.459,2.435.459.991,0,1.813-.178,2.467-.53.653-.354,1.178-.828,1.573-1.424.395-.595.674-1.283.838-2.063.163-.78.245-1.603.245-2.467,0-.801-.104-1.576-.308-2.325-.206-.748-.52-1.415-.941-1.999-.422-.586-.958-1.055-1.605-1.407-.648-.354-1.415-.53-2.3-.53-.981,0-1.827.174-2.538.521-.711.349-1.3.818-1.764,1.409-.464.59-.806,1.28-1.028,2.071s-.332,1.629-.332,2.514Z"/>
        <path d="m169.949,93.834l-9.141,22.297h-2.656l3.131-7.464-6.388-14.833h2.814l4.965,11.86,4.586-11.86h2.689Z"/>
        <path d="m194.11,108.034v2.34h-16.414v-1.139l13.189-19.228h-12.05v-2.246h15.465v1.139l-12.84,19.134h12.65Z"/>
        <path d="m213.229,102.215c0,1.202-.206,2.319-.617,3.352-.411,1.034-.986,1.927-1.723,2.681-.739.753-1.611,1.344-2.618,1.77-1.007.428-2.106.641-3.296.641-1.256,0-2.388-.222-3.4-.665s-1.874-1.053-2.585-1.834-1.257-1.697-1.637-2.752c-.38-1.053-.57-2.192-.57-3.416,0-1.191.201-2.3.601-3.329.4-1.028.964-1.92,1.692-2.68.727-.759,1.594-1.354,2.601-1.787s2.116-.648,3.329-.648c1.254,0,2.391.22,3.408.663s1.881,1.055,2.593,1.835,1.26,1.697,1.644,2.751c.385,1.055.578,2.192.578,3.416Zm-13.726.031c0,.886.117,1.708.349,2.467s.579,1.418,1.043,1.977c.464.558,1.038.995,1.723,1.311.685.317,1.481.476,2.388.476.938,0,1.753-.175,2.443-.522.691-.349,1.263-.816,1.717-1.407.452-.591.79-1.275,1.012-2.056.22-.78.332-1.602.332-2.466,0-.844-.117-1.646-.349-2.404-.232-.759-.579-1.429-1.043-2.008s-1.038-1.038-1.723-1.376c-.685-.337-1.481-.505-2.388-.505-.971,0-1.802.174-2.498.521-.696.349-1.265.82-1.708,1.416-.443.595-.77,1.288-.981,2.078-.21.792-.316,1.624-.316,2.498Z"/>
        <path d="m224.423,95.827c-.696,0-1.323.105-1.881.316s-1.034.512-1.423.902c-.391.39-.691.864-.902,1.423s-.316,1.186-.316,1.881v10.026h-2.625v-24.446h2.625v10.531c.253-.516.564-.956.933-1.32s.777-.663,1.226-.902c.447-.237.933-.411,1.454-.521.522-.111,1.057-.166,1.605-.166,1.033,0,1.937.171,2.712.513.775.343,1.423.818,1.945,1.424.522.605.915,1.326,1.178,2.157.263.833.395,1.745.395,2.735v9.994h-2.625v-10.184c0-1.423-.36-2.506-1.083-3.25-.722-.742-1.795-1.114-3.217-1.114Z"/>
        <path d="m251.685,102.215c0,1.202-.206,2.319-.617,3.352-.411,1.034-.986,1.927-1.723,2.681-.739.753-1.611,1.344-2.618,1.77-1.007.428-2.106.641-3.296.641-1.256,0-2.388-.222-3.4-.665s-1.874-1.053-2.585-1.834-1.257-1.697-1.637-2.752c-.38-1.053-.57-2.192-.57-3.416,0-1.191.201-2.3.601-3.329.4-1.028.964-1.92,1.692-2.68.727-.759,1.594-1.354,2.601-1.787s2.116-.648,3.329-.648c1.254,0,2.391.22,3.408.663s1.881,1.055,2.593,1.835,1.26,1.697,1.644,2.751c.385,1.055.578,2.192.578,3.416Zm-13.726.031c0,.886.117,1.708.349,2.467s.579,1.418,1.043,1.977c.464.558,1.038.995,1.723,1.311.685.317,1.481.476,2.388.476.938,0,1.753-.175,2.443-.522.691-.349,1.263-.816,1.717-1.407.452-.591.79-1.275,1.012-2.056.22-.78.332-1.602.332-2.466,0-.844-.117-1.646-.349-2.404-.232-.759-.579-1.429-1.043-2.008s-1.038-1.038-1.723-1.376c-.685-.337-1.481-.505-2.388-.505-.971,0-1.802.174-2.498.521-.696.349-1.265.82-1.708,1.416-.443.595-.77,1.288-.981,2.078-.21.792-.316,1.624-.316,2.498Z"/>
        <path d="m281.097,103.923c-.38.959-.884,1.85-1.511,2.672-.627.823-1.346,1.534-2.157,2.135-.812.601-1.703,1.073-2.673,1.415-.969.342-1.976.514-3.02.514-1.76,0-3.312-.295-4.656-.886-1.345-.59-2.472-1.407-3.385-2.45-.912-1.044-1.603-2.279-2.072-3.709-.469-1.428-.704-2.98-.704-4.657,0-1.033.114-2.037.341-3.013.227-.974.553-1.889.98-2.743.428-.854.95-1.637,1.565-2.348.617-.711,1.318-1.32,2.104-1.827.785-.505,1.652-.901,2.601-1.186.949-.284,1.961-.426,3.036-.426,1.012,0,2.003.148,2.973.442.971.295,1.866.718,2.689,1.266.822.548,1.55,1.209,2.182,1.984s1.127,1.642,1.486,2.602l-2.246.98c-.295-.768-.673-1.468-1.13-2.095-.459-.627-.989-1.162-1.59-1.604-.601-.443-1.265-.785-1.992-1.029-.728-.242-1.508-.363-2.341-.363-1.359,0-2.532.268-3.518.806s-1.797,1.254-2.435,2.151c-.638.895-1.107,1.919-1.407,3.067-.301,1.149-.451,2.335-.451,3.558,0,1.244.166,2.424.498,3.543.333,1.117.833,2.098,1.503,2.94.669.844,1.507,1.513,2.514,2.008,1.007.496,2.18.744,3.518.744.801,0,1.576-.143,2.325-.428.749-.284,1.44-.671,2.072-1.162.632-.49,1.191-1.064,1.675-1.723.485-.658.864-1.357,1.139-2.095l2.088.917Z"/>
        <path d="m287.991,100.539v9.835h-2.751v-22.613h7.431c1.044,0,2.042.111,2.997.332.954.222,1.795.586,2.522,1.092.728.505,1.307,1.168,1.74,1.984.431.818.648,1.822.648,3.013,0,.885-.137,1.673-.411,2.364-.275.691-.66,1.289-1.155,1.795-.496.507-1.086.925-1.771,1.257-.685.333-1.44.583-2.261.752l6.926,10.026h-3.068l-6.736-9.835h-4.112Zm0-2.183h4.871c.727,0,1.393-.075,1.999-.228s1.131-.402,1.574-.744c.442-.342.785-.785,1.028-1.328s.363-1.21.363-2.001c0-.801-.126-1.466-.378-1.992-.254-.527-.601-.943-1.044-1.25-.443-.305-.967-.521-1.573-.648s-1.262-.189-1.968-.189h-4.871v8.38Z"/>
        <path d="m308.231,91.335v19.039h-2.529v-22.613h3.826l7.242,17.932,7.148-17.932h3.795v22.613h-2.752v-19.039l-7.653,19.039h-1.17l-7.907-19.039Z"/>
      </g>
    </g>
  </g>
</svg>