<svg xmlns:xlink="http://www.w3.org/1999/xlink" xmlns:inkscape="http://www.inkscape.org/namespaces/inkscape" xmlns:sodipodi="http://sodipodi.sourceforge.net/DTD/sodipodi-0.dtd" xmlns="http://www.w3.org/2000/svg" xmlns:svg="http://www.w3.org/2000/svg" width="517.45073" height="61.649238" version="1.1" viewBox="0 0 517.45073 61.649238" xml:space="preserve" id="svg12487" sodipodi:docname="logo-2.svg" inkscape:version="1.2.2 (1:1.2.2+202212051550+b0a8486541)"><defs id="defs12491"/><sodipodi:namedview id="namedview12489" pagecolor="#ffffff" bordercolor="#666666" borderopacity="1.0" inkscape:showpageshadow="2" inkscape:pageopacity="0.0" inkscape:pagecheckerboard="0" inkscape:deskcolor="#d1d1d1" inkscape:document-units="mm" showgrid="false" inkscape:zoom="0.33832073" inkscape:cx="580.80982" inkscape:cy="316.26794" inkscape:window-width="1920" inkscape:window-height="1051" inkscape:window-x="1920" inkscape:window-y="0" inkscape:window-maximized="1" inkscape:current-layer="g12569"/><g id="g12598" transform="translate(66.269168,-15.463195)" style="fill:#3056d3;fill-opacity:1"><g transform="matrix(2.3422586,0,0,2.3422586,-28.876024,-51.093426)" id="g12485" style="fill:#3056d3;fill-opacity:1"><g fill="#fefefe" stroke-width="0.26458" aria-label="CHANGEDETECTION.IO" id="g12483" style="fill:#3056d3;fill-opacity:1"><path d="m 28.95,36.346 v 1.7611 q -0.84336,-0.78548 -1.8025,-1.1741 -0.95084,-0.38861 -2.0257,-0.38861 -2.1167,0 -3.2411,1.2981 -1.1245,1.2898 -1.1245,3.7372 0,2.4391 1.1245,3.7372 1.1245,1.2898 3.2411,1.2898 1.0749,0 2.0257,-0.38861 0.95911,-0.38861 1.8025,-1.1741 v 1.7446 q -0.87643,0.59531 -1.8603,0.89297 -0.97565,0.29766 -2.0671,0.29766 -2.8029,0 -4.4152,-1.7115 -1.6123,-1.7198 -1.6123,-4.6881 0,-2.9766 1.6123,-4.6881 1.6123,-1.7198 4.4152,-1.7198 1.1079,0 2.0836,0.29766 0.98392,0.28939 1.8438,0.87643 z" id="path12447" style="fill:#3056d3;fill-opacity:1"/><path d="m 30.585,35.395 h 1.6702 v 5.0601 h 6.0689 V 35.395 h 1.6702 V 47.739 H 38.3241 V 41.8603 H 32.2552 V 47.739 H 30.585 Z" id="path12449" style="fill:#3056d3;fill-opacity:1"/><path d="m 46.499,37.041 -2.2655,6.1433 h 4.5392 z m -0.94258,-1.6454 h 1.8934 l 4.7046,12.344 h -1.7363 l -1.1245,-3.1667 h -5.5645 l -1.1245,3.1667 h -1.7611 z" id="path12451" style="fill:#3056d3;fill-opacity:1"/><path d="m 53.013,35.395 h 2.249 l 5.4736,10.327 V 35.395 h 1.6206 v 12.344 h -2.249 L 54.6336,37.412 V 47.739 H 53.013 Z" id="path12453" style="fill:#3056d3;fill-opacity:1"/><path d="m 73.152,45.979 v -3.3156 h -2.7285 v -1.3725 h 4.3822 v 5.2999 q -0.96738,0.68626 -2.1332,1.0418 -1.1658,0.34726 -2.4887,0.34726 -2.8939,0 -4.531,-1.6867 -1.6288,-1.695 -1.6288,-4.7129 0,-3.0262 1.6288,-4.7129 1.6371,-1.695 4.531,-1.695 1.2072,0 2.2903,0.29766 1.0914,0.29766 2.0092,0.87643 v 1.7777 q -0.92604,-0.78548 -1.9678,-1.1824 -1.0418,-0.39687 -2.1911,-0.39687 -2.2655,0 -3.4065,1.265 -1.1327,1.265 -1.1327,3.7703 0,2.497 1.1327,3.762 1.141,1.265 3.4065,1.265 0.8847,0 1.5792,-0.14883 0.69453,-0.1571 1.2485,-0.47956 z" id="path12455" style="fill:#3056d3;fill-opacity:1"/><path d="m 76.912,35.395 h 7.8052 v 1.4056 h -6.135 v 3.6546 h 5.8787 v 1.4056 h -5.8787 v 4.4731 h 6.2838 v 1.4056 h -7.954 z" id="path12457" style="fill:#3056d3;fill-opacity:1"/><path d="m 89.742,37.801 v 7.5323 h 1.141 q 1.9513,0 2.9766,-0.96738 1.0335,-0.96738 1.0335,-2.8112 0,-1.8355 -1.0253,-2.7947 -1.0253,-0.95911 -2.9848,-0.95911 z m -3.1833,-2.406 h 3.3569 q 2.8112,0 4.1837,0.40514 1.3808,0.39688 2.3647,1.356 0.86816,0.83509 1.2898,1.9265 0.42168,1.0914 0.42168,2.4722 0,1.3973 -0.42168,2.497 -0.42168,1.0914 -1.2898,1.9265 -0.99218,0.95911 -2.3812,1.3643 -1.3891,0.39687 -4.1672,0.39687 h -3.3569 z" id="path12459" style="fill:#3056d3;fill-opacity:1"/><path d="m 99.671,35.395 h 8.5907 v 2.406 h -5.4074 v 2.2986 h 5.085 v 2.406 h -5.085 v 2.8277 h 5.5893 v 2.406 H 99.671 Z" id="path12461" style="fill:#3056d3;fill-opacity:1"/><path d="m 108.82,35.395 h 11.377 v 2.406 h -4.0928 v 9.9384 h -3.1833 V 37.801 h -4.101 z" id="path12463" style="fill:#3056d3;fill-opacity:1"/><path d="m 120.9,35.395 h 8.5907 v 2.406 h -5.4074 v 2.2986 h 5.085 v 2.406 h -5.085 v 2.8277 h 5.5893 v 2.406 H 120.9 Z" id="path12465" style="fill:#3056d3;fill-opacity:1"/><path d="m 141.31,47.062 q -0.87643,0.45475 -1.8273,0.68626 -0.95084,0.23151 -1.9844,0.23151 -3.084,0 -4.8865,-1.7198 -1.8025,-1.7281 -1.8025,-4.6798 0,-2.96 1.8025,-4.6798 1.8025,-1.7281 4.8865,-1.7281 1.0335,0 1.9844,0.23151 0.95085,0.23151 1.8273,0.68626 v 2.5549 q -0.8847,-0.60358 -1.7446,-0.8847 -0.85989,-0.28112 -1.8107,-0.28112 -1.7032,0 -2.6789,1.0914 -0.9757,1.0914 -0.97565,3.0096 0,1.91 0.97565,3.0014 0.97565,1.0914 2.6789,1.0914 0.95085,0 1.8107,-0.28112 0.8599,-0.28112 1.7446,-0.8847 z" id="path12467" style="fill:#3056d3;fill-opacity:1"/><path d="m 141.53,35.395 h 11.377 v 2.406 h -4.0928 v 9.9384 h -3.1833 V 37.801 h -4.101 z" id="path12469" style="fill:#3056d3;fill-opacity:1"/><path d="m 153.61,35.395 h 3.1833 V 47.739 H 153.61 Z" id="path12471" style="fill:#3056d3;fill-opacity:1"/><path d="m 164.61,37.479 q -1.4552,0 -2.2572,1.0749 -0.80201,1.0749 -0.80201,3.0262 0,1.943 0.80201,3.0179 0.80202,1.0749 2.2572,1.0749 1.4635,0 2.2655,-1.0749 0.80201,-1.0749 0.80201,-3.0179 0,-1.9513 -0.80201,-3.0262 -0.80202,-1.0749 -2.2655,-1.0749 z m 0,-2.3068 q 2.9766,0 4.6633,1.7033 1.6867,1.7033 1.6867,4.7046 0,2.9931 -1.6867,4.6963 -1.6867,1.7033 -4.6633,1.7033 -2.9683,0 -4.6633,-1.7033 -1.6867,-1.7033 -1.6867,-4.6963 0,-3.0014 1.6867,-4.7046 1.695,-1.7033 4.6633,-1.7033 z" id="path12473" style="fill:#3056d3;fill-opacity:1"/><path d="m 172.42,35.395 h 3.5553 l 4.4896,8.4666 V 35.395 h 3.0179 v 12.344 h -3.5553 l -4.4896,-8.4666 V 47.739 H 172.42 Z" id="path12475" style="fill:#3056d3;fill-opacity:1"/><path d="m 185.9,45.64 h 1.7446 v 2.1001 H 185.9 Z" id="path12477" style="fill:#3056d3;fill-opacity:1"/><path d="m 190.19,35.395 h 1.6702 V 47.739 H 190.19 Z" id="path12479" style="fill:#3056d3;fill-opacity:1"/><path d="m 199.25,36.528 q -1.819,0 -2.8939,1.356 -1.0666,1.356 -1.0666,3.6959 0,2.3316 1.0666,3.6876 1.0749,1.356 2.8939,1.356 1.819,0 2.8773,-1.356 1.0666,-1.356 1.0666,-3.6876 0,-2.3399 -1.0666,-3.6959 -1.0583,-1.356 -2.8773,-1.356 z m 0,-1.356 q 2.5962,0 4.1506,1.7446 1.5544,1.7363 1.5544,4.6633 0,2.9187 -1.5544,4.6633 -1.5544,1.7363 -4.1506,1.7363 -2.6045,0 -4.1672,-1.7363 -1.5544,-1.7363 -1.5544,-4.6633 0,-2.9269 1.5544,-4.6633 1.5627,-1.7446 4.1672,-1.7446 z" id="path12481" style="fill:#3056d3;fill-opacity:1"/></g></g><g id="g12569" transform="matrix(1.4230075,0,0,1.4230075,101.16082,69.230268)" style="fill:#3056d3;fill-opacity:1"><g id="g17173" transform="matrix(0.822901,0,0,0.822901,-23.378457,-2.3935111)"><path id="circle11598" style="fill:#3056d3;fill-opacity:1;stroke:none;stroke-width:1.96056px;stroke-miterlimit:10" d="M -88.24778,-43.007117 A 26.323395,26.323395 0 0 0 -114.57124,-16.68366 26.323395,26.323395 0 0 0 -88.24778,9.6397984 26.323395,26.323395 0 0 0 -61.924322,-16.68366 26.323395,26.323395 0 0 0 -88.24778,-43.007117 Z m 0,2.841687 a 23.482013,23.482013 0 0 1 23.482288,23.48177 23.482013,23.482013 0 0 1 -23.482288,23.4822885 23.482013,23.482013 0 0 1 -23.48177,-23.4822885 23.482013,23.482013 0 0 1 23.48177,-23.48177 z"/><g id="g12229" transform="matrix(0.26458333,0,0,0.26458333,-115.65284,-44.085232)" style="fill:#3056d3;fill-opacity:1;stroke:none;stroke-width:1.00132;stroke-dasharray:none"><path d="m 33.02,64.43 c 0.35,-0.05 2.04,-0.13 2.04,-0.13 h 25.53 c 0,0 3.17,0.32 3.67,0.53 2.5,1.05 3.98,1.89 6.04,3.57 0.72,0.58 4.12,4.01 4.12,4.01 l 51.67,57.39 c 0,0 1.61,1.65 1.97,1.94 1.2,0.97 2.48,1.96 3.98,2.32 0.5,0.12 2.72,0.21 2.72,0.21 h 27.32 l -8.83,-9.04 c 0,0 -1.31,-1.65 -1.44,-1.94 -0.45,-0.93 -0.59,-2.59 -0.13,-3.51 0.35,-0.69 1.46,-1.87 2.23,-1.98 1.03,-0.14 2.12,-0.39 3.02,0.14 0.33,0.2 1.64,1.32 1.64,1.32 l 17.49,17.49 c 0,0 1.35,1.09 1.6,1.6 0.17,0.34 0.29,0.82 0.15,1.18 -0.17,0.42 -1.42,1.63 -1.42,1.63 l -0.94,0.98 -15.69,16.37 c 0,0 -1.44,1.4 -1.79,1.67 -0.76,0.6 -1.99,0.89 -2.96,0.9 -1.03,0 -2.62,-1.11 -3.26,-1.91 -0.6,-0.76 -1.1,-2.22 -0.77,-3.13 0.16,-0.45 1.28,-1.85 1.28,-1.85 l 11.36,-11.3 -29.47,-0.02 -1.68,0.09 c 0,0 -4.16,-0.66 -5.26,-1.03 -1.63,-0.56 -3.44,-1.82 -4.75,-2.93 -0.39,-0.33 -1.8,-1.92 -1.8,-1.92 L 68.96,77.8 c 0,0 -2,-2.06 -2.43,-2.43 -1.37,-1.17 -2,-1.62 -3.76,-2.34 -0.44,-0.18 -3.45,-0.55 -3.45,-0.55 L 35.19,72.26 c 0,0 -2.23,-0.15 -2.61,-0.22 -1.08,-0.21 -2.16,-1.07 -2.81,-1.83 -0.79,-0.92 -0.59,-3.06 0.06,-4.09 0.57,-0.89 2.14,-1.52 3.19,-1.66 z" style="fill:#3056d3;fill-opacity:1;stroke:none;stroke-width:1.00132;stroke-miterlimit:10;stroke-dasharray:none" id="path11600"/><g id="g11606" style="fill:#3056d3;fill-opacity:1;stroke:none;stroke-width:1.00132;stroke-dasharray:none"><path d="m 86.1,109.7 -17.13,19.65 c 0,0 -2,2.06 -2.43,2.43 -1.37,1.17 -2,1.62 -3.76,2.34 -0.44,0.18 -3.45,0.55 -3.45,0.55 l -24.13,0.22 c 0,0 -2.23,0.15 -2.61,0.22 -1.08,0.21 -2.16,1.07 -2.81,1.83 -0.79,0.92 -0.59,3.06 0.06,4.09 0.57,0.89 2.14,1.52 3.19,1.66 0.35,0.05 2.04,0.13 2.04,0.13 H 60.6 c 0,0 3.17,-0.32 3.67,-0.53 2.5,-1.05 3.98,-1.89 6.04,-3.57 0.72,-0.58 4.12,-4.01 4.12,-4.01 l 17.38,-19.3 z" style="fill:#3056d3;fill-opacity:1;stroke:none;stroke-width:1.00132;stroke-miterlimit:10;stroke-dasharray:none" id="path11602"/><path d="m 177.81,67.6 c -0.17,-0.42 -1.42,-1.63 -1.42,-1.63 l -0.94,-0.98 -15.69,-16.37 c 0,0 -1.44,-1.4 -1.79,-1.67 -0.76,-0.6 -1.99,-0.89 -2.96,-0.9 -1.03,0 -2.62,1.11 -3.26,1.91 -0.6,0.76 -1.1,2.22 -0.77,3.13 0.16,0.45 1.28,1.85 1.28,1.85 l 11.36,11.3 -29.47,0.02 -1.68,-0.09 c 0,0 -4.16,0.66 -5.26,1.03 -1.63,0.56 -3.44,1.82 -4.75,2.93 -0.39,0.33 -1.8,1.92 -1.8,1.92 l -18.91,21.69 5.98,5.98 18.38,-20.41 c 0,0 1.61,-1.65 1.97,-1.94 1.2,-0.97 2.48,-1.96 3.98,-2.32 0.5,-0.12 2.72,-0.21 2.72,-0.21 h 27.32 l -8.83,9.04 c 0,0 -1.31,1.65 -1.44,1.94 -0.45,0.93 -0.59,2.59 -0.13,3.51 0.35,0.69 1.46,1.87 2.23,1.98 1.03,0.14 2.12,0.39 3.02,-0.14 0.33,-0.2 1.64,-1.32 1.64,-1.32 l 17.49,-17.49 c 0,0 1.35,-1.09 1.6,-1.6 0.17,-0.34 0.29,-0.82 0.15,-1.18 z" style="fill:#3056d3;fill-opacity:1;stroke:none;stroke-width:1.00132;stroke-miterlimit:10;stroke-dasharray:none" id="path11604"/></g></g></g></g></g></svg>