<?xml version="1.0" encoding="utf-8"?><svg version="1.1" id="Layer_1" xmlns="http://www.w3.org/2000/svg" xmlns:xlink="http://www.w3.org/1999/xlink" x="0px" y="0px" viewBox="0 0 122.88 109.36" style="enable-background:new 0 0 122.88 109.36" xml:space="preserve"><g><path d="M14.69,16.44h3.56V8.63c0-1.09,0.88-1.97,1.97-1.97h3.5V1.97C23.72,0.88,24.6,0,25.69,0h31.92c1.09,0,1.97,0.88,1.97,1.97 v4.69h43.05c1.09,0,1.97,0.88,1.97,1.97v7.82h3.59c1.09,0,1.97,0.88,1.97,1.97c0,0.14-0.01,0.28-0.04,0.42l-6.88,50.59 c-0.22,1.65-0.95,3.18-2.05,4.29c-1.1,1.1-2.54,1.78-4.25,1.78H70.95v5.86h2.12c1.54,0,2.8,1.26,2.8,2.8v5.06h10.44 c1.25,0,2.32,0.83,2.67,1.97h26.1c3.73,0,6.14,2.07,7.2,4.71c0.4,1,0.6,2.08,0.6,3.14c0,1.06-0.2,2.14-0.6,3.14 c-1.06,2.64-3.47,4.71-7.2,4.71H89.09c-0.15,1.4-1.35,2.49-2.78,2.49H72.63H38.8c-1.44,0-2.63-1.1-2.78-2.49H7.8 c-3.73,0-6.14-2.07-7.2-4.71c-0.4-1-0.6-2.08-0.6-3.14c0-1.06,0.2-2.14,0.6-3.14c1.06-2.64,3.47-4.71,7.2-4.71h28.32 c0.36-1.14,1.42-1.97,2.67-1.97h8.74v-5.06c0-1.54,1.26-2.8,2.8-2.8h1.69v-5.86H24.38c-1.71,0-3.19-0.69-4.3-1.79 c-1.11-1.11-1.83-2.66-2.01-4.33l-5.33-50.74c-0.11-1.08,0.67-2.04,1.75-2.15C14.56,16.45,14.63,16.45,14.69,16.44L14.69,16.44 L14.69,16.44L14.69,16.44z M31.38,34.43h16.29v4.58H38v3.72h8.26v4.3H38v8.71h-6.61V34.43L31.38,34.43z M50.08,34.43H70.1v5.27 h-6.72v16.05h-6.59V39.7h-6.71V34.43L50.08,34.43z M73.41,34.43h10.95c2.38,0,4.17,0.57,5.35,1.7c1.19,1.14,1.78,2.75,1.78,4.84 c0,2.15-0.65,3.84-1.94,5.05c-1.3,1.21-3.27,1.82-5.93,1.82h-3.6v7.91h-6.61V34.43L73.41,34.43z M80.03,43.52h1.61 c1.27,0,2.16-0.22,2.68-0.66c0.51-0.44,0.77-1,0.77-1.69c0-0.67-0.22-1.24-0.67-1.7c-0.44-0.47-1.28-0.7-2.51-0.7h-1.88V43.52 L80.03,43.52z M56.38,81.34h10.21v-5.79H56.38V81.34L56.38,81.34z M89.11,94.88v8.27h25.97c1.97,0,3.22-1.04,3.76-2.37 c0.22-0.54,0.33-1.15,0.33-1.76s-0.11-1.22-0.33-1.76c-0.54-1.33-1.79-2.37-3.76-2.37H89.11L89.11,94.88z M36,103.15v-8.27H7.8 c-1.97,0-3.22,1.04-3.76,2.37c-0.22,0.54-0.33,1.15-0.33,1.76s0.11,1.22,0.33,1.76c0.54,1.33,1.79,2.37,3.76,2.37H36L36,103.15z M20.23,20.38h-3.35l5.1,48.57c0.08,0.78,0.39,1.47,0.87,1.95c0.4,0.4,0.92,0.64,1.53,0.64h72.54c0.59,0,1.1-0.24,1.48-0.62 c0.49-0.49,0.82-1.22,0.93-2.03l6.6-48.51L20.23,20.38L20.23,20.38L20.23,20.38z M22.19,10.6v5.83l78.46-0.83v-5H57.61 c-1.09,0-1.97-0.88-1.97-1.97V3.94H27.66v4.69c0,1.09-0.88,1.97-1.97,1.97L22.19,10.6L22.19,10.6L22.19,10.6z"/></g></svg>