<?xml version="1.0" standalone="no"?>
<!DOCTYPE svg PUBLIC "-//W3C//DTD SVG 20010904//EN"
 "http://www.w3.org/TR/2001/REC-SVG-20010904/DTD/svg10.dtd">
<svg version="1.0" xmlns="http://www.w3.org/2000/svg"
 width="400.000000pt" height="400.000000pt" viewBox="0 0 400.000000 400.000000"
 preserveAspectRatio="xMidYMid meet">

<g transform="translate(0.000000,400.000000) scale(0.100000,-0.100000)"
fill="#000000" stroke="none">
<path d="M1829 3850 c-287 -26 -616 -144 -862 -308 -135 -89 -408 -322 -475
-405 -165 -201 -294 -475 -339 -717 -21 -117 -24 -472 -5 -630 36 -288 104
-524 220 -753 106 -210 196 -343 306 -452 106 -105 195 -159 348 -213 57 -19
135 -56 173 -80 217 -139 452 -205 725 -205 150 0 238 15 378 65 214 75 380
175 522 314 89 87 101 95 175 120 161 54 277 127 419 263 217 210 362 458 437
749 67 261 49 465 -78 862 -100 313 -183 445 -468 739 -202 208 -366 324 -650
462 -328 159 -565 213 -826 189z m206 -29 c12 -5 -13 -10 -70 -14 -203 -13
-587 -89 -701 -137 -26 -11 -49 -19 -51 -16 -5 5 128 61 217 91 81 28 235 64
315 75 78 10 265 11 290 1z m-62 -142 c233 -14 324 -28 142 -22 -258 10 -585
-22 -805 -77 -63 -16 -116 -28 -117 -26 -6 6 167 85 217 100 120 35 289 42
563 25z m-773 -34 c0 -2 -13 -11 -30 -20 -38 -19 -40 -11 -2 9 31 17 32 18 32
11z m1120 -68 c217 -49 376 -104 575 -203 199 -99 255 -141 363 -274 253 -311
380 -563 411 -815 19 -158 15 -239 -23 -389 -42 -164 -94 -275 -208 -436 -44
-63 -121 -173 -171 -245 -108 -156 -188 -258 -269 -344 -47 -49 -80 -72 -143
-102 -98 -46 -457 -169 -494 -169 -14 0 -86 31 -161 69 -144 74 -183 88 -355
127 -78 17 -138 39 -210 75 -439 223 -697 460 -867 798 -56 112 -64 114 -13 4
68 -147 187 -314 301 -424 136 -130 382 -300 565 -390 46 -23 131 -69 189
-103 127 -75 183 -99 297 -130 60 -15 89 -28 91 -39 6 -31 -34 -54 -144 -81
-60 -14 -115 -33 -123 -41 -23 -23 -8 -20 212 34 l198 50 110 -12 c60 -6 109
-14 109 -18 0 -6 -116 -62 -191 -92 -133 -54 -382 -104 -564 -113 -104 -5
-108 -4 -82 11 15 9 27 17 27 19 0 2 -42 -6 -92 -16 -89 -19 -97 -19 -178 -3
-203 39 -488 226 -664 435 -172 204 -336 516 -409 780 -49 176 -61 269 -62
485 0 195 1 203 33 330 78 301 191 585 277 690 l24 30 -20 -63 c-29 -96 -22
-109 9 -17 52 155 125 242 300 356 59 39 116 62 300 123 394 130 430 136 717
132 191 -3 235 -7 335 -29z m-1941 -729 c-88 -175 -129 -307 -164 -523 -21
-135 -22 -138 -30 -91 -10 64 1 226 20 297 21 81 70 194 115 271 37 62 86 128
96 128 2 0 -14 -37 -37 -82z m100 -28 c-43 -99 -99 -284 -123 -400 -28 -138
-46 -386 -36 -495 13 -146 38 -303 65 -413 29 -119 185 -437 300 -612 75 -116
86 -140 62 -140 -40 0 -208 164 -283 276 -71 106 -93 173 -98 293 -4 83 -10
110 -45 201 -46 116 -56 166 -70 348 -16 194 13 437 74 617 44 132 174 415
190 415 1 0 -15 -41 -36 -90z m3340 -622 c83 -383 16 -750 -195 -1076 -98
-150 -283 -323 -435 -406 -60 -33 -169 -76 -191 -76 -19 0 86 111 228 241 172
157 253 254 313 376 24 48 67 125 96 169 69 105 108 184 141 281 35 103 43
263 20 412 -18 115 -21 216 -7 191 5 -8 18 -59 30 -112z m-152 -310 c-3 -8 -6
-5 -6 6 -1 11 2 17 5 13 3 -3 4 -12 1 -19z m-22 -167 c-42 -233 -142 -442
-285 -594 -60 -65 -204 -180 -285 -228 l-40 -24 31 40 c18 22 94 130 171 240
77 110 173 248 214 306 89 126 148 237 180 339 20 61 25 69 27 45 2 -16 -4
-72 -13 -124z m-2954 -986 c77 -64 259 -248 259 -262 0 -26 -70 5 -166 73 -88
62 -174 176 -174 231 0 18 22 7 81 -42z m1310 -11 c26 -8 55 -24 64 -34 18
-19 17 -20 -8 -20 -25 0 -118 31 -146 49 -7 5 -11 13 -7 19 7 11 25 8 97 -14z
m805 -33 c-3 -4 -30 -27 -60 -50 -52 -40 -57 -42 -117 -39 l-62 3 119 47 c138
54 127 50 120 39z m-1515 -324 c49 -23 89 -45 89 -49 0 -21 -187 27 -235 61
-37 26 -135 136 -135 152 0 4 43 -22 97 -58 53 -35 136 -83 184 -106z m1501
125 c-147 -175 -408 -321 -672 -377 -92 -19 -292 -19 -403 0 -190 33 -394 119
-371 156 4 6 41 8 97 4 98 -7 299 6 487 31 274 37 429 79 600 162 92 45 127
54 288 71 8 0 -4 -21 -26 -47z"/>
<path d="M632 2890 c0 -14 2 -19 5 -12 2 6 2 18 0 25 -3 6 -5 1 -5 -13z"/>
<path d="M622 2825 c0 -16 2 -22 5 -12 2 9 2 23 0 30 -3 6 -5 -1 -5 -18z"/>
<path d="M691 1840 c0 -8 4 -22 9 -30 12 -18 12 -2 0 25 -6 13 -9 15 -9 5z"/>
</g>
</svg>
