<?xml version="1.0" encoding="UTF-8"?>
<svg width="27px" height="28px" viewBox="0 0 27 28" version="1.1" xmlns="http://www.w3.org/2000/svg" xmlns:xlink="http://www.w3.org/1999/xlink">
    <!-- Generator: Sketch 51.3 (57544) - http://www.bohemiancoding.com/sketch -->
    <title>ΘMarketing/Logos/Sprocket</title>
    <desc>Created with Sketch.</desc>
    <defs></defs>
    <g id="MHE-Post-Launch-Updates" stroke="none" stroke-width="1" fill="none" fill-rule="evenodd">
        <g id="ΘMarketing/Logos/Sprocket" fill="#f95c35">
            <path d="M19.614233,20.1771162 C17.5228041,20.1771162 15.8274241,18.4993457 15.8274241,16.4299995 C15.8274241,14.3602937 17.5228041,12.6825232 19.614233,12.6825232 C21.7056619,12.6825232 23.4010418,14.3602937 23.4010418,16.4299995 C23.4010418,18.4993457 21.7056619,20.1771162 19.614233,20.1771162 M20.7478775,9.21551429 L20.7478775,5.88190722 C21.6271788,5.47091457 22.243053,4.59067833 22.243053,3.56912967 L22.243053,3.49218091 C22.243053,2.08229273 21.0774338,0.928780545 19.6527478,0.928780545 L19.5753548,0.928780545 C18.1506688,0.928780545 16.9850496,2.08229273 16.9850496,3.49218091 L16.9850496,3.56912967 C16.9850496,4.59067833 17.6009238,5.47127414 18.4802251,5.88226679 L18.4802251,9.21551429 C17.1710836,9.4157968 15.9749432,9.95012321 14.9884545,10.7365107 L5.73944086,3.61659339 C5.80048326,3.3846684 5.84335828,3.14591151 5.84372163,2.89492912 C5.84517502,1.29842223 4.53930368,0.00215931486 2.92531356,1.87311107e-06 C1.31205014,-0.00179599501 0.00181863138,1.29087118 1.8932965e-06,2.88773765 C-0.00181484479,4.48460412 1.30405649,5.78086703 2.91804661,5.7826649 C3.44381061,5.78338405 3.93069642,5.63559929 4.35726652,5.39540411 L13.4551275,12.3995387 C12.6815604,13.5552084 12.2281026,14.9395668 12.2281026,16.4299995 C12.2281026,17.9901894 12.7262522,19.433518 13.5677653,20.6204705 L10.8012365,23.3586237 C10.5825013,23.2935408 10.3557723,23.2482346 10.1152362,23.2482346 C8.78938076,23.2482346 7.71423516,24.3118533 7.71423516,25.6239375 C7.71423516,26.9363812 8.78938076,28 10.1152362,28 C11.441455,28 12.5162373,26.9363812 12.5162373,25.6239375 C12.5162373,25.3866189 12.4704555,25.1618854 12.4046896,24.9454221 L15.1414238,22.2371135 C16.3837093,23.1752411 17.9308435,23.7390526 19.614233,23.7390526 C23.6935367,23.7390526 27,20.466573 27,16.4299995 C27,12.7756527 24.2872467,9.7566726 20.7478775,9.21551429" id="Marketing/Logos/Sprocket"></path>
        </g>
    </g>
</svg>