<svg xmlns:xlink="http://www.w3.org/1999/xlink" class="jff-logo-img" width="53" height="59" viewBox="0 0 53 59" fill="none" xmlns="http://www.w3.org/2000/svg" aria-hidden="true"><path d="M14.4509 55.1332C15.5462 56.1951 14.7721 58.0143 13.2168 58.0143H3.4831C1.56265 58.0143 0 56.4995 0 54.6377V45.2017C0 43.6939 1.87664 42.9436 2.97195 44.0054L14.4509 55.1332Z" fill="#0A1551"></path><path d="M29.6655 55.8676C26.7843 53.0052 26.7843 48.3642 29.6655 45.5018L40.0638 35.1713C42.945 32.3089 47.6164 32.3089 50.4976 35.1713C53.3788 38.0338 53.3788 42.6747 50.4976 45.5371L40.0993 55.8676C37.2181 58.73 32.5468 58.73 29.6655 55.8676Z" fill="#FFB629"></path><path d="M2.1968 29.9101C-0.684414 27.0476 -0.684413 22.4067 2.1968 19.5443L19.696 2.14685C22.5772 -0.71559 27.2486 -0.715594 30.1298 2.14685C33.011 5.00929 33.011 9.65022 30.1298 12.5127L12.6306 29.9101C9.74937 32.7725 5.078 32.7725 2.1968 29.9101Z" fill="#0099FF"></path><path d="M16.5015 42.3095C13.6203 39.4471 13.6203 34.8062 16.5015 31.9437L40.1461 8.45322C43.0273 5.59079 47.6986 5.59079 50.5798 8.45322C53.4611 11.3157 53.4611 15.9566 50.5798 18.819L26.9353 42.3095C24.0541 45.1719 19.3827 45.1719 16.5015 42.3095Z" fill="#FF6100"></path></svg>