<svg xmlns:xlink="http://www.w3.org/1999/xlink" width="44" height="47" fill="none" xmlns="http://www.w3.org/2000/svg"><path fill-rule="evenodd" clip-rule="evenodd" d="M42.338 29.549l-.001-.003c-.049 0-.08.003-.08.003s-.15-.603-.332-1.187c-.182-.583-.373-.947-.373-.947l.113-.174-.002-.004c.617-1.02.632-1.892.535-2.446a3.363 3.363 0 00-.938-1.848l-.027-.027c-.734-.719-1.753-1.223-3.408-1.688-.19-.053-.359-.097-.508-.135a14.48 14.48 0 01-.36-.106l-.015-.129c-.006-.437-.031-1.918-.069-2.782-.027-.624-.081-1.598-.383-2.558-.36-1.299-.988-2.436-1.772-3.163 2.162-2.241 3.512-4.71 3.51-6.829-.007-4.074-5.01-5.306-11.176-2.753l-.019.008a9.866 9.866 0 00-1.259.533l-.028.013A1308.2 1308.2 0 0023.349.98c-7.03-6.131-29.008 18.298-21.98 24.232l1.535 1.3c-.398 1.032-.555 2.215-.427 3.486.164 1.633 1.006 3.198 2.371 4.408 1.296 1.148 2.93 1.83 4.49 1.872l.137.002H9.502c2.734 6.3 8.808 10.017 16.016 10.372l.285.012v.002h.007v-.002c7.714.273 14.454-3.454 17.219-10.078.348-.896 2.29-6.275-.691-7.036zm-32.232 4.96c-.239.04-.482.056-.728.05-2.373-.063-4.937-2.2-5.192-4.734-.281-2.8 1.15-4.956 3.684-5.467a4.313 4.313 0 011.064-.076c1.42.078 3.511 1.168 3.99 4.26.423 2.74-.25 5.528-2.818 5.966zm-2.66-11.825l.01-.002c1.953-5.347 5.36-10.356 9.798-13.773.084-.07.17-.14.26-.21 2.187-1.785 4.428-3.305 6.585-4.508 0 0-1.913-2.218-2.49-2.381C18.056.85 10.38 6.143 5.479 13.136c-1.982 2.83-4.82 7.84-3.463 10.418.167.32 1.114 1.14 1.622 1.564.85-1.235 2.15-2.1 3.808-2.434zm9.04-9.553c1.746-2.023 3.9-3.783 5.829-4.77.066-.034.137.038.1.103-.153.28-.45.878-.541 1.328-.013.066.06.114.116.076 1.198-.818 3.364-1.548 5.195-1.656.078-.005.111.098.045.14-.285.177-.729.482-.932.778a.076.076 0 00.055.119c1.268.117 3.067.45 4.325 1.046.082.039.038.162-.05.142-1.777-.41-4.705-.727-7.746.015-2.717.663-4.788 1.689-6.295 2.79-.072.053-.16-.043-.101-.11zM39.64 38.092c1.477-1.543 2.356-3.221 2.697-5.289.168-1.106-.078-1.534-.412-1.74-.354-.218-.778-.142-.778-.142s-.193-1.324-.74-2.526c-1.623 1.28-3.712 2.18-5.303 2.637-1.836.527-4.32.932-7.091.767-.302-.024-.584-.061-.845-.095-1.068-.14-1.785-.234-2.093.765a5.137 5.137 0 00.292.11c.143.048.29.093.438.135a15.031 15.031 0 001.82.401c.308.049.617.093.928.125a14.503 14.503 0 001.402.08 13.092 13.092 0 001.115-.02c.098-.004.196-.008.294-.014.313-.022.626-.05.942-.081a.131.131 0 01.064.25l-.009.004c-.302.128-.615.23-.933.31a8.384 8.384 0 01-1.457.226 14.41 14.41 0 01-1.477.019 13.822 13.822 0 01-.983-.076 15.745 15.745 0 01-1.46-.247 10.076 10.076 0 01-1.074-.307c.125 1.064 1.162 1.541 1.658 1.734a7.478 7.478 0 001.306.354c5.62.967 10.875-2.246 12.058-3.056.088-.06.147-.001.076.106a1.96 1.96 0 01-.116.165c-1.448 1.868-5.34 4.03-10.404 4.03-2.21 0-4.417-.779-5.227-1.974-1.258-1.855-.062-4.563 2.033-4.281.002 0 .717.08.918.104 4.408.493 9.73-.959 12.094-3.142l.116-.083c.819-.772 1.236-1.57 1.102-2.271a1.7 1.7 0 00-.493-.967c-.513-.503-1.328-.894-2.702-1.28l-.114-.032-.145-.04c-.32-.09-.57-.159-.835-.246-.59-.194-.882-.35-.948-1.46-.03-.486-.114-2.176-.144-2.875-.054-1.224-.201-2.898-1.24-3.588a1.74 1.74 0 00-.887-.284c-.255-.012-.405.023-.485.042l-.042.01c-.56.094-.904.382-1.31.72l-.07.06c-1.295 1.079-2.389 1.255-3.604 1.203-.38-.016-.77-.054-1.183-.095-.378-.037-.774-.076-1.197-.101l-.1-.006c-.139-.008-.277-.017-.416-.024-2.036-.104-4.22 1.655-4.584 4.153-.405 2.787 1.133 4.494 2.133 5.605.248.275.462.513.607.722a.756.756 0 01-.06.97l.001.001c-2.078 2.137-2.742 5.532-1.96 8.36.099.354.222.692.37 1.014 1.836 4.294 7.535 6.293 13.103 4.474a13.677 13.677 0 002.115-.893 11.112 11.112 0 003.24-2.42zm-6.56-16.037c.34-.04.667-.042.967 0 .173-.398.203-1.084.047-1.831-.232-1.111-.546-1.783-1.195-1.678-.65.104-.673.909-.441 2.02.13.624.363 1.159.622 1.49zm-5.572.88c-1.001-.432-1.777-.565-3.24-.094l-.115.038c-.291.095-.494.161-.623.155a.26.26 0 01-.04-.005c-.069-.014-.116-.057-.13-.119-.042-.191.253-.507.564-.734.94-.677 2.16-.823 3.184-.383.5.213.971.593 1.2.967.111.181.133.321.061.395-.112.118-.335.017-.74-.166h-.001l-.12-.055zm-.935.532c-.094.01-.181.03-.266.05l-.006.001a4.952 4.952 0 01-.075.017 2.01 2.01 0 00-.805.413c-.183.16-.296.336-.295.46 0 .06.026.093.046.11.028.025.06.036.1.038.083.004.196-.036.351-.09l.091-.032a3.777 3.777 0 011.91-.207l.038.005c.279.033.447.053.514-.052.02-.03.044-.095-.017-.193-.142-.23-.753-.618-1.586-.52zm5.635 1.78c-.147.3-.6.379-1.01.177-.41-.202-.624-.608-.477-.907.147-.3.6-.38 1.01-.177.41.201.624.608.477.907zm1.63-2.13c-.333-.006-.61.36-.618.818-.008.458.257.833.59.839.334.006.61-.36.618-.818.008-.458-.256-.833-.59-.839zm-22.761 8.208c.132-.03.268-.062.351.042.03.034.078.113.022.242-.095.22-.468.52-1.002.5-.55-.043-1.16-.443-1.244-1.437-.04-.49.145-1.089.26-1.401.22-.605.02-1.238-.496-1.577a1.34 1.34 0 00-1.858.387c-.158.247-.255.555-.306.72-.014.045-.025.08-.034.102-.116.313-.302.405-.427.388-.06-.008-.142-.048-.194-.191-.143-.392-.027-1.5.71-2.314a2.233 2.233 0 011.915-.69c.742.094 1.359.543 1.737 1.263.503.958.055 1.963-.212 2.563l-.005.01a8.5 8.5 0 00-.074.169c-.167.398-.176.746-.024.98.117.179.324.284.57.288.114.002.218-.022.31-.043h.001z" fill="#000"/></svg>