<svg xmlns="http://www.w3.org/2000/svg" width="78.88" height="77" viewBox="0 0 78.88 77"><g transform="translate(-561 -471)"><g transform="translate(-479.103 381)"><g transform="translate(1040.104 94)"><g transform="translate(113.835 10.269)"><path d="M3640.414,2731.809l-5.131-3.025-31.2,18.389a3.848,3.848,0,0,1-3.906,0l-31.2-18.385-5.125,3.021a2.355,2.355,0,0,0,0,4.059l36.329,21.41a3.847,3.847,0,0,0,3.905,0l36.328-21.41a2.355,2.355,0,0,0,0-4.059Z" transform="translate(-3676.527 -2699.322)" fill="#bbc0c4"/><path d="M3640.414,2717.247l-36.328,21.41a3.847,3.847,0,0,1-3.905,0l-36.329-21.41a2.356,2.356,0,0,1,0-4.06l36.329-21.409a3.842,3.842,0,0,1,3.9,0l36.328,21.409a2.356,2.356,0,0,1,0,4.06Z" transform="translate(-3676.527 -2694.961)" fill="#55626d"/></g></g><rect width="420" height="77" transform="translate(1040.104 90)" fill="none"/></g></g></svg>