<?xml version="1.0" encoding="UTF-8"?>
<svg version="1.1" xmlns="http://www.w3.org/2000/svg" width="512" height="512">
<path d="M0 0 C168.96 0 337.92 0 512 0 C512 168.96 512 337.92 512 512 C343.04 512 174.08 512 0 512 C0 343.04 0 174.08 0 0 Z " fill="#00D488" transform="translate(0,0)"/>
<path d="M0 0 C1.0293975 -0.00525911 1.0293975 -0.00525911 2.07959092 -0.01062447 C4.38416475 -0.0199444 6.68848621 -0.01501367 8.9930706 -0.01015663 C10.6600925 -0.01389261 12.32711265 -0.01849393 13.99413002 -0.02388728 C18.57925395 -0.03613949 23.16430505 -0.03585419 27.74944162 -0.03349853 C32.69304375 -0.03309091 37.63662234 -0.04412433 42.58021355 -0.05361366 C52.26810066 -0.07023767 61.95596345 -0.07572387 71.64386363 -0.07683842 C79.51932176 -0.07778839 87.39477185 -0.08189615 95.27022743 -0.08823967 C117.59666748 -0.10585721 139.92308829 -0.11507794 162.24953534 -0.11357872 C164.05555969 -0.11345885 164.05555969 -0.11345885 165.89806938 -0.11333656 C167.10355544 -0.1132548 168.3090415 -0.11317304 169.55105744 -0.1130888 C189.0819512 -0.11227613 208.61276778 -0.13140765 228.14363922 -0.1596133 C248.19592618 -0.18834344 268.24817552 -0.20215346 288.30048358 -0.20042574 C299.55898856 -0.19976181 310.81741268 -0.20525557 322.07589912 -0.22678185 C331.66339147 -0.2449955 341.25076632 -0.24933955 350.83826847 -0.235763 C355.72874172 -0.22923384 360.61898958 -0.22911426 365.50944138 -0.2464695 C369.99044608 -0.26220784 374.47104684 -0.25932876 378.95204173 -0.24190123 C380.56917196 -0.23883298 382.18633239 -0.24245714 383.803427 -0.25362138 C396.57075046 -0.33589543 406.73647231 1.06525245 416.21154594 10.16742516 C421.84689472 16.43543263 423.60673454 22.88574537 423.48498344 31.18695641 C422.31618918 40.28272167 417.09929765 47.15313587 410.21935844 52.87445641 C404.91249181 56.91589042 399.50215062 60.80486615 394.06701469 64.67133141 C388.84537632 68.40462665 383.74531695 72.28778907 378.65295219 76.19476891 C368.12394623 84.26177329 357.45800434 92.13040018 346.75646782 99.96625328 C337.61294864 106.66538972 328.52639197 113.42661206 319.52795219 120.31976891 C312.40133589 125.77903575 305.19854639 131.10440742 297.89660454 136.32611656 C292.06739997 140.51148287 286.34951233 144.83098102 280.65295219 149.19476891 C270.12327197 157.26091583 259.45802628 165.13038412 248.75646782 172.96625328 C239.61294864 179.66538972 230.52639197 186.42661206 221.52795219 193.31976891 C214.40133589 198.77903575 207.19854639 204.10440742 199.89660454 209.32611656 C194.06739997 213.51148287 188.34951233 217.83098102 182.65295219 222.19476891 C172.12327197 230.26091583 161.45802628 238.13038412 150.75646782 245.96625328 C140.71038642 253.32666547 130.75165255 260.78574943 120.86535454 268.35956383 C114.52974846 273.1983346 108.1041736 277.89301981 101.62194633 282.53265953 C96.50127766 286.20874504 91.4641206 289.97964902 86.46545219 293.81976891 C85.76951958 294.35231285 85.07358696 294.8848568 84.35656548 295.43353844 C80.83630629 298.13139154 77.33559832 300.85081569 73.85607719 303.60101891 C63.15045214 311.98483646 54.55713743 317.13148821 40.46545219 316.71430016 C35.30198104 316.0150801 31.40508634 314.09801085 27.09045219 311.25726891 C26.16232719 310.65914391 25.23420219 310.06101891 24.27795219 309.44476891 C17.84664943 303.01346614 14.816515 295.45770888 14.71545219 286.38226891 C14.67291313 284.65363609 14.67291313 284.65363609 14.62951469 282.89008141 C15.72408888 274.26335265 21.37358146 267.92108304 26.59045219 261.25726891 C28.03888745 259.38266949 29.48680014 257.50766619 30.93420219 255.63226891 C31.64447563 254.71574547 32.35474907 253.79922203 33.08654594 252.85492516 C35.79095166 249.34921405 38.44521055 245.80770359 41.09045219 242.25726891 C45.67369705 236.12087439 50.31358237 230.02925975 54.96545219 223.94476891 C60.19877467 217.09668526 65.36851028 210.2074533 70.46545219 203.25726891 C75.01784753 197.05008796 79.62676962 190.90178505 84.34045219 184.81586266 C87.90662004 180.21091334 91.43516145 175.5772435 94.96545219 170.94476891 C95.6544561 170.04065269 96.34346001 169.13653648 97.05334282 168.20502281 C101.70374162 162.09561079 106.32245474 155.96342447 110.91833305 149.81293297 C114.08614383 145.57900581 117.29428109 141.37855798 120.52795219 137.19476891 C126.78706183 130.32210693 126.78706183 130.32210693 130.09045219 122.25726891 C129.21010307 121.81971275 128.32975395 121.3821566 127.42272758 120.93134117 C97.99402626 106.29697148 97.99402626 106.29697148 86.61340141 100.19769859 C80.35066602 96.84454904 74.00247574 93.67631019 67.63830376 90.52094078 C62.13987788 87.79385643 56.64513758 85.05939531 51.15295219 82.31976891 C50.5414431 82.0147747 49.92993401 81.7097805 49.29989433 81.39554405 C41.42379513 77.46381472 33.5914507 73.46438458 25.83239555 69.30609703 C21.33100217 66.8975505 16.78946479 64.58704992 12.21545219 62.31976891 C10.90536329 61.66390442 9.59547026 61.00764855 8.28576469 60.35101891 C6.08666862 59.24883153 3.88387104 58.15685562 1.67150688 57.08148766 C-9.63354971 51.57535263 -18.16228602 46.9715693 -24.90954781 36.00726891 C-26.76325111 29.05588151 -27.34560774 21.39384435 -24.15954781 14.75726891 C-23.44523703 13.568416 -22.69759599 12.39858007 -21.90954781 11.25726891 C-21.29079781 10.34976891 -20.67204781 9.44226891 -20.03454781 8.50726891 C-14.26822125 2.40174667 -8.2495704 0.00950761 0 0 Z " fill="#FDFEFE" transform="translate(57.90954780578613,101.74273109436035)"/>
<path d="M0 0 C55.77 0 111.54 0 169 0 C165.46636558 3.53363442 162.29657512 6.45234321 158.375 9.4375 C157.54572998 10.06930176 157.54572998 10.06930176 156.69970703 10.71386719 C149.35215614 16.28704355 141.90717873 21.73070842 134.47167969 27.18554688 C130.47696263 30.11805746 126.48873912 33.05936661 122.5 36 C120.91669941 37.16671111 119.33336604 38.33337772 117.75 39.5 C116.96625 40.0775 116.1825 40.655 115.375 41.25 C108.25 46.5 108.25 46.5 105.87548828 48.24951172 C104.29036372 49.41758398 102.70540306 50.58587868 101.12060547 51.75439453 C97.19098369 54.65139141 93.25869648 57.5446114 89.3203125 60.4296875 C80.87796854 66.62103272 72.49980514 72.88487605 64.1875 79.25 C57.8726991 84.08533326 51.52263229 88.84030272 45.02294922 93.42382812 C40.72863226 96.45809042 36.51149222 99.58531837 32.3125 102.75 C26.46219061 107.15907315 20.58782385 111.53304728 14.6875 115.875 C13.89472656 116.45846191 13.10195313 117.04192383 12.28515625 117.64306641 C9.04522037 120.02656528 5.8043283 122.40876228 2.56347656 124.79101562 C-5.6485357 130.82877474 -13.85433768 136.87289444 -22 143 C-30.1498895 149.13028521 -38.3602261 155.17710259 -46.57666016 161.21777344 C-51.34600926 164.72535438 -56.11090562 168.2389817 -60.87646484 171.75170898 C-64.82071 174.65865573 -68.76627545 177.56377129 -72.71484375 180.46484375 C-80.8397204 186.43743519 -88.93922561 192.44110985 -97 198.5 C-103.79602046 203.60569055 -110.6037789 208.69484613 -117.4375 213.75 C-118.22447266 214.33458984 -119.01144531 214.91917969 -119.82226562 215.52148438 C-123.45635624 218.20341151 -127.0598167 220.77532394 -131 223 C-129.33369866 219.33059173 -127.09360766 216.13336766 -124.75 212.875 C-124.31671387 212.27026855 -123.88342773 211.66553711 -123.43701172 211.04248047 C-119.2057834 205.19147351 -114.77172867 199.5041072 -110.31982422 193.8203125 C-104.93001949 186.93536573 -99.67472588 179.95657012 -94.45019531 172.94580078 C-86.60102216 162.41416609 -78.68013255 151.93916283 -70.71191406 141.49731445 C-66.59680996 136.1027781 -62.50901444 130.690166 -58.44921875 125.25390625 C-55.78635698 121.70303948 -53.08558181 118.18123889 -50.38989258 114.65527344 C-43.87044806 106.12613296 -37.42582875 97.55073469 -31.08374023 88.88891602 C-27.24936279 83.66290279 -23.33577809 78.50565813 -19.375 73.375 C-14.94553977 67.62250685 -10.63570815 61.79860563 -6.4375 55.875 C-5.94878418 55.18841309 -5.46006836 54.50182617 -4.95654297 53.79443359 C3.88672491 41.20752595 7.46687884 29.44166008 6 14 C5.04058661 10.41909086 3.73479188 7.26698034 2 4 C1.01 2.02 1.01 2.02 0 0 Z " fill="#02D488" transform="translate(264,136)"/>
<path d="M0 0 C12.21535724 -0.11694996 24.4305767 -0.20524237 36.64638424 -0.25906086 C42.32150789 -0.28491882 47.99624265 -0.31986983 53.67114258 -0.37719727 C121.10322457 -1.04034894 121.10322457 -1.04034894 136 12.8671875 C139.70527653 17.00131548 141.52275019 20.02140328 141.3828125 25.62890625 C139.33136992 38.33529041 126.56913027 50.92232387 119 61 C113.61661865 59.40492404 108.79880517 57.0318436 103.8125 54.5 C102.93029785 54.05567627 102.0480957 53.61135254 101.13916016 53.15356445 C94.57452863 49.83376997 88.06600221 46.4137064 81.56958008 42.96289062 C74.76689361 39.36592412 67.89044697 35.92528008 61 32.5 C52.75590479 28.40170375 44.56260741 24.23382778 36.44189453 19.89648438 C31.54682976 17.29785674 26.60830376 14.7964649 21.640625 12.33984375 C21.0003537 12.02265884 20.3600824 11.70547394 19.70040894 11.37867737 C16.49642858 9.79252235 13.28915185 8.2136193 10.07666016 6.64477539 C8.91440918 6.07106201 7.7521582 5.49734863 6.5546875 4.90625 C5.50780762 4.39384766 4.46092773 3.88144531 3.38232422 3.35351562 C1 2 1 2 0 0 Z " fill="#03D489" transform="translate(93,136)"/>
</svg>
