<svg xmlns="http://www.w3.org/2000/svg" viewBox="0 0 36 36" fill="none">
  <path fill="#1877F2" d="M36 18C36 8.06 27.94 0 18 0S0 8.06 0 18c0 8.98 6.6 16.44 15.23 17.78V23.18h-4.58V18h4.58v-3.98c0-4.51 2.69-7.01 6.8-7.01 1.97 0 4.03.35 4.03.35v4.44h-2.27c-2.23 0-2.94 1.39-2.94 2.8V18h5l-.8 5.18h-4.2v12.6C29.4 34.44 36 26.98 36 18z" />
  <path fill="#ffffff" d="M25.02 23.18L25.82 18h-5v-3.4c0-1.41.71-2.8 2.94-2.8h2.27V7.36s-2.06-.35-4.03-.35c-4.11 0-6.8 2.5-6.8 7.01V18h-4.58v5.18h4.58v12.6a17.76 17.76 0 005.54 0v-12.6h4.2z" />
</svg> 