<svg xmlns="http://www.w3.org/2000/svg" width="762.564" height="769.312" viewBox="0 0 772772" fill="none">
<g clip-path="url(#clip0_493_7535)">
<path d="M747.782 474.701C725.051 423.2 683.614 383.657 631.048 363.294L413.561 279.117L429.189 369.569L602.633 436.697C670.591 462.98 704.451 539.58 678.168 607.537C651.885 675.494 575.285 709.354 507.328 683.071C473.231 669.811 446.711 643.883 432.741 610.023C429.426 601.854 426.939 593.33 425.164 584.569L358.509 636.07C358.982 637.372 359.338 638.674 359.811 639.858C382.069 693.963 424.216 735.282 478.795 756.356C503.776 765.946 529.349 770.563 554.566 770.563C639.098 770.563 719.131 719.299 751.334 635.833C771.697 583.267 770.277 526.083 747.545 474.583L747.782 474.701Z" fill="#02AFC7"/>
<path d="M440.91 419.881L294.459 533.064C287.119 538.628 279.187 543.482 270.781 547.507C237.631 563.254 200.693 564.556 166.477 551.414C133.564 538.628 107.636 513.884 93.3109 481.563C78.9854 449.242 78.1567 413.369 90.943 380.456C103.729 347.543 128.473 321.615 160.794 307.29C190.866 294.03 224.134 292.491 255.271 302.672L241.064 219.206C147.061 207.13 53.2943 259.815 17.6583 352.042C-2.70517 404.608 -1.28446 461.792 21.4468 513.292C44.1781 564.793 85.6154 604.336 138.181 624.699C162.57 634.171 188.38 638.788 214.189 638.788C245.208 638.788 276.227 632.039 304.641 618.543C318.019 612.268 330.687 604.454 342.29 595.575L527.81 452.083L440.91 419.762V419.881Z" fill="#31DEA4"/>
<path d="M624.42 193.396C629.629 229.624 619.921 265.379 597.19 294.148C594.822 297.108 592.335 299.831 589.731 302.554L665.62 333.454C696.402 289.649 709.899 235.307 702.203 182.149C694.153 126.386 665.028 77.135 619.921 43.3933C574.932 9.76989 519.406 -4.43717 463.643 3.49511C407.88 11.5458 358.629 40.6703 324.888 85.7777C291.146 130.885 276.939 186.411 284.989 242.055L323.23 457.529L393.673 404.371L362.773 230.334C357.919 195.646 366.798 161.075 387.872 133.016C409.064 104.72 439.846 86.488 474.89 81.3972C509.935 76.4247 544.623 85.3041 572.801 106.378C601.096 127.57 619.329 158.47 624.42 193.396V193.396Z" fill="#FF5986"/>
</g>
<defs>
<clipPath id="clip0_493_7535">
<rect width="762.564" height="769.312" fill="white" transform="translate(3.33301 1.36719)"/>
</clipPath>
</defs>
</svg>