<svg xmlns="http://www.w3.org/2000/svg" width="100pt" height="100pt" version="1.1" viewBox="0 0 100 100">
 <path d="m66.012 33h-3.0117v-11c0-7.1719-5.8281-13-13-13s-13 5.8281-13 13v11h-3.0117c-2.75 0-4.9883 2.2383-4.9883 4.9883v28.012c0 2.75 2.2383 4.9883 4.9883 4.9883h32.012c2.75 0 4.9883-2.2383 4.9883-4.9883v-28.012c0.011719-2.75-2.2266-4.9883-4.9766-4.9883zm-27.012-11c0-6.0703 4.9297-11 11-11s11 4.9297 11 11v11h-22zm30 44.012c0 1.6484-1.3398 2.9883-2.9883 2.9883h-32.023c-1.6484 0-2.9883-1.3398-2.9883-2.9883v-28.023c0-1.6484 1.3398-2.9883 2.9883-2.9883h32.023c1.6484 0 2.9883 1.3398 2.9883 2.9883zm-18 9.9883v14c0 0.55078-0.44922 1-1 1s-1-0.44922-1-1v-14c0-0.55078 0.44922-1 1-1s1 0.44922 1 1zm20 8c0 0.55078-0.44922 1-1 1h-8c-0.55078 0-1-0.44922-1-1v-8c0-0.55078 0.44922-1 1-1s1 0.44922 1 1v7h7c0.55078 0 1 0.44922 1 1zm-32-8v8c0 0.55078-0.44922 1-1 1h-8c-0.55078 0-1-0.44922-1-1s0.44922-1 1-1h7v-7c0-0.55078 0.44922-1 1-1s1 0.44922 1 1zm-14-26c0 0.55078-0.44922 1-1 1h-14c-0.55078 0-1-0.44922-1-1s0.44922-1 1-1h14c0.55078 0 1 0.44922 1 1zm0-12c0 0.55078-0.44922 1-1 1h-8c-0.55078 0-1-0.44922-1-1v-8c0-0.55078 0.44922-1 1-1s1 0.44922 1 1v7h7c0.55078 0 1 0.44922 1 1zm0 24c0 0.55078-0.44922 1-1 1h-7v7c0 0.55078-0.44922 1-1 1s-1-0.44922-1-1v-8c0-0.55078 0.44922-1 1-1h8c0.55078 0 1 0.44922 1 1zm66-12c0 0.55078-0.44922 1-1 1h-14c-0.55078 0-1-0.44922-1-1s0.44922-1 1-1h14c0.55078 0 1 0.44922 1 1zm-16-12c0-0.55078 0.44922-1 1-1h7v-7c0-0.55078 0.44922-1 1-1s1 0.44922 1 1v8c0 0.55078-0.44922 1-1 1h-8c-0.55078 0-1-0.44922-1-1zm10 24v8c0 0.55078-0.44922 1-1 1s-1-0.44922-1-1v-7h-7c-0.55078 0-1-0.44922-1-1s0.44922-1 1-1h8c0.55078 0 1 0.44922 1 1zm-35-17c-2.7617 0-5 2.2383-5 5 0 2.4102 1.7188 4.4297 4 4.8984v5.1016c0 0.55078 0.44922 1 1 1s1-0.44922 1-1v-5.1016c2.2812-0.46094 4-2.4805 4-4.8984 0-2.7617-2.2383-5-5-5zm0 8c-1.6484 0-3-1.3516-3-3s1.3516-3 3-3 3 1.3516 3 3-1.3516 3-3 3z"/>
</svg>
