<svg fill="none" xmlns="http://www.w3.org/2000/svg" viewBox="0 0 118.58 109.61"> <path fill-rule="evenodd" clip-rule="evenodd" d="M92.794 58.0274C78.5507 58.0274 67.0041 69.5741 67.0041 83.8185C67.0041 98.0618 78.5507 109.608 92.794 109.608C107.037 109.608 118.584 98.0618 118.584 83.8185C118.584 69.5741 107.037 58.0274 92.794 58.0274V58.0274ZM25.7899 58.0298C11.5466 58.0298 0 69.5741 0 83.8186C0 98.0618 11.5466 109.608 25.7899 109.608C40.0338 109.608 51.581 98.0618 51.581 83.8186C51.581 69.5741 40.0338 58.0298 25.7899 58.0298V58.0298ZM85.0815 25.7894C85.0815 40.0338 73.5354 51.5816 59.2921 51.5816C45.0483 51.5816 33.5022 40.0338 33.5022 25.7894C33.5022 11.5478 45.0483 0 59.2921 0C73.5354 0 85.0815 11.5478 85.0815 25.7894V25.7894Z" fill="#FF584A"></path> </svg>
