<svg width="180px" height="30px" viewBox="0 0 180 30" version="1.1" xmlns="http://www.w3.org/2000/svg" xmlns:xlink="http://www.w3.org/1999/xlink">
        <g stroke="none" stroke-width="1" fill="none" fill-rule="evenodd">
          <g class="CMS-logo" fill="#323a45">
            <path d="M10.9251852,28.4042553 C6.68888889,26.393617 4.3,23.7765957 4.42740741,20.7446809 C4.80962963,12.2234043 24.94,3.5106383 49.242963,1.30851064 C56.5688889,0.638297872 63.417037,0.638297872 69.4688889,1.21276596 C62.5251852,0.191489362 54.18,5.55111512e-17 45.1340741,0.829787234 C20.8311111,3.03191489 0.700740741,11.7446809 0.318518519,20.2659574 C0.127407407,24.4468085 4.74592593,27.7978723 12.3585185,29.9042553 L10.9251852,28.4042553 Z"></path>
            <g transform="translate(6.370370, 2.234043)" fill-rule="nonzero">
              <path d="M3.15333333,23.3297872 C1.87925926,22.0531915 1.27407407,20.6489362 1.33777778,19.1489362 C1.68814815,11.2978723 20.3214815,3.25531915 42.8725926,1.21276596 C46.3125926,0.893617021 49.7525926,0.734042553 53.0651852,0.734042553 C59.2444444,0.734042553 65.0096296,1.27659574 69.7555556,2.36170213 L69.8192593,2.04255319 C64.7866667,0.70212766 58.4481481,0 51.5362963,0 C48.2555556,0 44.8792593,0.159574468 41.4392593,0.478723404 C19.0155556,2.4893617 0.477777778,10.5957447 0.127407407,18.5106383 C0.0318518519,20.6808511 1.27407407,22.6276596 3.79037037,24.3510638 L3.15333333,23.3297872 Z"></path>
              <path d="M22.8059259,24.0957447 C16.4355556,24.0957447 11.3074074,21.1276596 11.3074074,16.6914894 C11.3074074,12.2234043 16.4355556,9.31914894 22.8059259,9.31914894 C25.8318519,9.31914894 28.6348148,10.0851064 30.6733333,11.3297872 L28.1251852,13.1489362 C27.0103704,12.4468085 25.3222222,11.6808511 23.2518519,11.6808511 C20.2896296,11.6808511 18.4103704,13.1808511 18.4103704,16.7234043 C18.4103704,20.2021277 20.2896296,21.7340426 23.2518519,21.7340426 C25.3222222,21.7340426 27.0103704,21 28.1251852,20.2978723 L30.6733333,22.1170213 C28.6348148,23.3297872 25.8318519,24.0957447 22.8059259,24.0957447"></path>
              <polygon points="51.5681481 23.6489362 51.5681481 14.9680851 46.662963 23.6489362 42.3311111 23.6489362 36.7251852 14.9680851 36.7251852 23.6489362 32.457037 23.6489362 32.457037 9.76595745 40.7703704 9.76595745 46.1214815 18.0957447 50.8992593 9.76595745 58.2251852 9.76595745 58.2251852 23.6489362"></polygon>
              <path d="M69.6918519,24.0957447 C64.8822222,24.0957447 61.8244444,22.4680851 60.6777778,21.3510638 L63.2577778,19.6595745 C64.5318519,20.6808511 67.2711111,21.8617021 69.6918519,21.8617021 C71.8259259,21.8617021 72.9088889,21.4787234 72.9088889,20.8085106 C72.9088889,19.5957447 70.3607407,19.2765957 67.7807407,18.7340426 C63.9266667,17.9042553 61.06,16.8510638 61.06,14.2021277 C61.06,10.9148936 64.9777778,9.31914894 69.9466667,9.31914894 C73.5459259,9.31914894 75.9666667,10.0212766 78.037037,11.4893617 L75.5207407,13.0851064 C74.0555556,12.0638298 71.4437037,11.4893617 70.0422222,11.4893617 C67.7488889,11.4893617 66.857037,12 66.857037,12.6382979 C66.857037,13.6595745 68.8637037,13.7553191 72.0807407,14.4574468 C76.0622222,15.3510638 79.0562963,16.5957447 79.0562963,19.2765957 C79.0244444,22.212766 75.457037,24.0957447 69.6918519,24.0957447"></path>
            </g>
          </g>
          <text font-family="Roboto-Bold, Roboto" font-size="18" font-weight="bold" line-spacing="23" fill="#323a45">
            <tspan x="98" y="25">Developer</tspan>
          </text>
        </g>
      </svg>