<?xml version="1.0" encoding="utf-8"?>
<svg version="1.1"
	 id="svg8849" inkscape:version="1.1 (c68e22c387, 2021-05-23)" sodipodi:docname="google tasks.svg" xmlns:inkscape="http://www.inkscape.org/namespaces/inkscape" xmlns:sodipodi="http://sodipodi.sourceforge.net/DTD/sodipodi-0.dtd" xmlns:svg="http://www.w3.org/2000/svg"
	 xmlns="http://www.w3.org/2000/svg" xmlns:xlink="http://www.w3.org/1999/xlink" x="0px" y="0px" width="527.1px" height="500px"
	 viewBox="0 0 527.1 500" enable-background="new 0 0 527.1 500" xml:space="preserve">
<sodipodi:namedview  bordercolor="#eeeeee" borderopacity="1" id="namedview8851" inkscape:bbox-nodes="true" inkscape:bbox-paths="true" inkscape:current-layer="layer1" inkscape:cx="280.62992" inkscape:cy="277.14384" inkscape:document-units="mm" inkscape:object-paths="true" inkscape:pagecheckerboard="0" inkscape:pageopacity="0" inkscape:pageshadow="0" inkscape:snap-bbox="true" inkscape:snap-bbox-edge-midpoints="true" inkscape:snap-bbox-midpoints="true" inkscape:snap-center="true" inkscape:snap-global="true" inkscape:snap-intersection-paths="true" inkscape:snap-midpoints="true" inkscape:snap-object-midpoints="true" inkscape:snap-page="true" inkscape:snap-smooth-nodes="true" inkscape:snap-text-baseline="true" inkscape:window-height="1009" inkscape:window-maximized="1" inkscape:window-width="1920" inkscape:window-x="1912" inkscape:window-y="760" inkscape:zoom="1.4342733" pagecolor="#505050" showgrid="false" units="px">
	</sodipodi:namedview>
<g>
	<polygon fill="#0066DA" points="410.4,58.3 368.8,81.2 348.2,120.6 368.8,168.8 407.8,211 450,187.5 475.9,142.8 450,87.5 	"/>
	<path fill="#2684FC" d="M249.3,219.4l98.9-98.9c29.1,22.1,50.5,53.8,59.6,90.4L272.1,346.7c-12.2,12.2-32,12.2-44.2,0l-91.5-91.5
		c-9.8-9.8-9.8-25.6,0-35.3l39-39c9.8-9.8,25.6-9.8,35.3,0L249.3,219.4z M519.8,63.6l-39.7-39.7c-9.7-9.7-25.6-9.7-35.3,0
		l-34.4,34.4c27.5,23,49.9,51.8,65.5,84.5l43.9-43.9C529.6,89.2,529.6,73.3,519.8,63.6z M412.5,250c0,89.8-72.8,162.5-162.5,162.5
		S87.5,339.8,87.5,250S160.2,87.5,250,87.5c36.9,0,70.9,12.3,98.2,33.1l62.2-62.2C367,21.9,311.1,0,250,0C111.9,0,0,111.9,0,250
		s111.9,250,250,250s250-111.9,250-250c0-38.3-8.7-74.7-24.1-107.2L407.8,211C410.8,223.5,412.5,236.6,412.5,250z"/>
</g>
</svg>
