<?xml version="1.0" encoding="utf-8"?>
<!DOCTYPE svg PUBLIC "-//W3C//DTD SVG 1.1//EN" "http://www.w3.org/Graphics/SVG/1.1/DTD/svg11.dtd">
<svg version="1.1" id="Icon" xmlns="http://www.w3.org/2000/svg" xmlns:xlink="http://www.w3.org/1999/xlink" x="0px" y="0px"
	 width="38.359px" height="27.043px" viewBox="0 0 38.359 27.043" enable-background="new 0 0 38.359 27.043" xml:space="preserve">
<path fill="#00D488" d="M38.104,1.847c-0.169-0.508-0.777-1.688-2.791-1.688H2.546c-1.19,0-2.145,0.769-2.321,1.879
	C0.105,2.875,0.477,4.045,1.864,4.56l11.789,5.998C13.399,10.893,4.29,22.922,4.29,22.922c-0.608,0.742-0.734,1.731-0.328,2.587
	c0.406,0.83,1.272,1.367,2.209,1.367c0.452,0,0.898-0.12,1.252-0.328c0.083-0.04,0.151-0.083,0.161-0.096L36.984,4.64
	C38.518,3.599,38.231,2.243,38.104,1.847z M16.494,6.76l-1.126,1.5L5.194,3.044c0,0,6.615,0.014,6.835,0.014
	c5.875,0,5.327,2.188,5.316,2.244C17.251,5.727,16.739,6.425,16.494,6.76z M18.688,8.637c0.543-0.715,1.16-1.526,1.479-2.411
	c0.425-1.169,0.266-2.292-0.425-3.183h14.523L8.492,22.167L18.688,8.637z"/>
</svg>
