<svg viewBox="163.6488 0 44.2356 46.0692" xmlns:xlink="http://www.w3.org/1999/xlink"
  xmlns="http://www.w3.org/2000/svg" style="max-height: 500px" width="44.2356" height="46.0692">
  <defs>
    <style> .cls-1 { fill: #fff; } .cls-2 { fill: #f5d05e; } </style>
  </defs>
  <g>
    <g id="Ebene_1">
      <a>
        <path
          d="M16.3,40.4c-.2.5-.6.8-1.1.8h-4.3c-.5,0-1-.2-1.2-.8L0,17.9c-.2-.4.1-.8.5-.8h4.3c.5,0,1,.2,1.1.8l6.9,16.6,6.9-16.6c.2-.5.6-.8,1.1-.8h4.3c.4,0,.7.4.5.8l-9.6,22.5h0Z"
          class="cls-1" id="fullLogo" />
      </a>
      <path
        d="M219.7,19.2c-5.3,0-9.6-4.3-9.6-9.6S214.4,0,219.7,0s9.6,4.3,9.6,9.6-4.3,9.6-9.6,9.6ZM219.7,1c-4.7,0-8.6,3.8-8.6,8.6s3.8,8.6,8.6,8.6,8.6-3.8,8.6-8.6-3.8-8.6-8.6-8.6Z"
        class="cls-1" id="fullLogo-2" />
      <path
        d="M185.7,35.9c-7.8,0-14.2-6.4-14.2-14.2s6.4-14.2,14.2-14.2,14.2,6.4,14.2,14.2-.8,5.3-2.2,7.5l-2.2-2.1c-1.4-1.3-3.7-1.3-5,.1-1.3,1.4-1.3,3.7.1,5l2,1.8c-2,1.1-4.4,1.8-6.9,1.8M202.9,34c2.5-3.5,4-7.7,4-12.3,0-11.7-9.5-21.2-21.2-21.2s-21.2,9.5-21.2,21.2,9.5,21.2,21.2,21.2,8.7-1.4,12.1-3.8l3.1,2.9c.7.6,1.6,1,2.4,1s1.9-.4,2.6-1.1c1.3-1.4,1.3-3.7-.1-5l-2.9-2.7h0Z"
        class="cls-2" id="fullLogo-3" />
      <path
        d="M37.8,40.4c0,.5-.3.8-.8.8h-3.9c-.5,0-.8-.3-.8-.8v-22.4c0-.5.3-.8.8-.8h3.9c.5,0,.8.3.8.8v22.4ZM35,4.2c1.9,0,3.4,1.5,3.4,3.4s-1.5,3.4-3.4,3.4-3.4-1.5-3.4-3.4,1.5-3.4,3.4-3.4"
        class="cls-1" id="fullLogo-4" />
      <a>
        <path
          d="M106.8,29.9v-11.9c0-.5.3-.8.8-.8h3.9c.5,0,.8.3.8.8v11.9c0,8-5.1,12-11.8,12s-11.8-4-11.8-12v-11.9c0-.5.3-.8.8-.8h3.9c.5,0,.8.3.8.8v11.9c0,5.5,3.6,6.7,6.3,6.7s6.3-1.2,6.3-6.7"
          class="cls-1" id="fullLogo-5" />
      </a>
      <path
        d="M131.7,21.7c-3.1,0-7.2,1.8-7.2,7.5s3.4,7.5,6.4,7.6c3,.2,7.7-1.5,7.7-7.5s-3.9-7.6-7-7.6M144.3,40.4c0,.5-.3.8-.8.8h-3.9c-.5,0-.8-.3-.8-.8v-2.4c-2,3.2-5.8,3.9-8.2,3.9-7.5,0-11.6-6-11.6-12.5s5.7-12.9,12.8-12.9,12.5,4.3,12.5,13v11h0Z"
        class="cls-1" id="fullLogo-6" />
      <a>
        <path
          d="M156.8,4.2h-3.9c-.5,0-.8.3-.8.8v35.3c0,.5.3.8.8.8h3.9c.5,0,.8-.3.8-.8V5c0-.5-.3-.8-.8-.8"
          class="cls-1" id="fullLogo-7" />
      </a>
      <a>
        <path
          d="M83.1,17.1h-6.4V5c0-.5-.3-.8-.8-.8h-3.9c-.5,0-.8.3-.8.8v12.1h-6.4c-.5,0-.8.3-.8.8v3.6c0,.5.3.8.8.8h6.4v17.9c0,.5.3.8.8.8h3.9c.5,0,.8-.3.8-.8v-17.9h6.4c.5,0,.8-.3.8-.8v-3.6c0-.5-.3-.8-.8-.8"
          class="cls-1" id="fullLogo-8" />
      </a>
      <a>
        <path
          d="M58.4,17.1h-6.4c-4.5,0-7.9,3.4-7.9,10v13.2c0,.5.3.8.8.8h3.9c.5,0,.8-.3.8-.8v-.9s0,0,0,0v-12.3c0-3,1.8-4.7,3.9-4.7h4.9c.5,0,.8-.3.8-.8v-3.6c0-.5-.3-.8-.8-.8"
          class="cls-1" id="fullLogo-9" />
      </a>
      <path
        d="M.2,55.9h.6c0,.3.2.5.4.7.2.2.5.2.9.2s.6,0,.8-.2c.2-.2.3-.4.3-.6s0-.4-.2-.5c-.2-.1-.4-.2-.7-.3l-.6-.2c-.5-.1-.8-.3-1-.5-.2-.2-.3-.5-.3-.8s.2-.8.5-1c.3-.3.8-.4,1.3-.4s.9.1,1.2.4c.3.3.5.6.5,1h-.6c0-.3-.1-.5-.3-.6-.2-.2-.5-.2-.8-.2s-.6,0-.8.2c-.2.2-.3.4-.3.6s0,.3.2.5c.1.1.4.2.7.3h.5c.5.3.9.4,1.1.7.2.2.3.5.3.9s-.2.8-.5,1.1c-.3.3-.8.4-1.4.4s-1-.1-1.3-.4c-.3-.3-.5-.6-.5-1.1h0Z"
        class="cls-1" id="fullLogo-10" />
      <path
        d="M7.8,52.2v3.2c0,.4.1.7.4.9.2.2.6.4,1,.4s.8-.1,1-.4c.2-.2.4-.6.4-.9v-3.2h.6v3.3c0,.5-.2,1-.5,1.3-.4.3-.8.5-1.4.5s-1.1-.2-1.4-.5c-.4-.3-.5-.8-.5-1.3v-3.3s.6,0,.6,0Z"
        class="cls-1" id="fullLogo-11" />
      <path
        d="M16.6,57.3c-.7,0-1.2-.2-1.6-.7-.4-.5-.6-1.1-.6-1.9s.2-1.4.6-1.9,1-.7,1.6-.7,1,.2,1.4.5c.4.3.6.7.7,1.2h-.6c0-.3-.3-.6-.5-.8-.3-.2-.6-.3-.9-.3s-.9.2-1.2.5c-.3.4-.4.9-.4,1.5s.1,1.1.4,1.5c.3.4.7.5,1.2.5s.7,0,.9-.3c.3-.2.4-.4.5-.7h.6c-.1.5-.4.9-.7,1.1-.4.3-.8.4-1.4.4h0Z"
        class="cls-1" id="fullLogo-12" />
      <path
        d="M23.9,57.3c-.7,0-1.2-.2-1.6-.7-.4-.5-.6-1.1-.6-1.9s.2-1.4.6-1.9,1-.7,1.6-.7,1,.2,1.4.5c.4.3.6.7.7,1.2h-.6c0-.3-.3-.6-.5-.8-.3-.2-.6-.3-.9-.3s-.9.2-1.2.5c-.3.4-.4.9-.4,1.5s.1,1.1.4,1.5c.3.4.7.5,1.2.5s.7,0,.9-.3c.3-.2.4-.4.5-.7h.6c-.1.5-.4.9-.7,1.1-.4.3-.8.4-1.4.4h0Z"
        class="cls-1" id="fullLogo-13" />
      <path d="M32.3,56.7v.6h-3.1v-5h3.1v.6h-2.5v1.6h2.3v.6h-2.3v1.7s2.5,0,2.5,0Z" class="cls-1"
        id="fullLogo-14" />
      <path
        d="M35.3,55.9h.6c0,.3.2.5.4.7.2.2.5.2.9.2s.6,0,.8-.2c.2-.2.3-.4.3-.6s0-.4-.2-.5c-.2-.1-.4-.2-.7-.3l-.6-.2c-.5-.1-.8-.3-1-.5-.2-.2-.3-.5-.3-.8s.2-.8.5-1c.3-.3.8-.4,1.3-.4s.9.1,1.2.4c.3.3.5.6.5,1h-.6c0-.3-.1-.5-.3-.6-.2-.2-.5-.2-.8-.2s-.6,0-.8.2c-.2.2-.3.4-.3.6s0,.3.2.5c.1.1.4.2.7.3h.5c.5.3.9.4,1.1.7.2.2.3.5.3.9s-.2.8-.5,1.1c-.3.3-.8.4-1.4.4s-1-.1-1.3-.4c-.3-.3-.5-.6-.5-1.1h0Z"
        class="cls-1" id="fullLogo-15" />
      <path
        d="M42,55.9h.6c0,.3.2.5.4.7.2.2.5.2.9.2s.6,0,.8-.2c.2-.2.3-.4.3-.6s0-.4-.2-.5c-.2-.1-.4-.2-.7-.3l-.6-.2c-.5-.1-.8-.3-1-.5-.2-.2-.3-.5-.3-.8s.2-.8.5-1c.3-.3.8-.4,1.3-.4s.9.1,1.2.4c.3.3.5.6.5,1h-.6c0-.3-.1-.5-.3-.6-.2-.2-.5-.2-.8-.2s-.6,0-.8.2c-.2.2-.3.4-.3.6s0,.3.2.5c.1.1.4.2.7.3h.5c.5.3.9.4,1.1.7.2.2.3.5.3.9s-.2.8-.5,1.1c-.3.3-.8.4-1.4.4s-1-.1-1.3-.4c-.3-.3-.5-.6-.5-1.1h0Z"
        class="cls-1" id="fullLogo-16" />
      <path d="M49.5,57.2h-.6v-5h3v.6h-2.4v1.7h2.2v.6h-2.2v2.2Z" class="cls-1" id="fullLogo-17" />
      <path
        d="M55.8,52.2v3.2c0,.4.1.7.4.9.2.2.6.4,1,.4s.8-.1,1-.4c.2-.2.4-.6.4-.9v-3.2h.6v3.3c0,.5-.2,1-.5,1.3-.4.3-.8.5-1.4.5s-1.1-.2-1.4-.5c-.4-.3-.5-.8-.5-1.3v-3.3s.6,0,.6,0Z"
        class="cls-1" id="fullLogo-18" />
      <path d="M65.5,56.7v.6h-3v-5h.6v4.4h2.4Z" class="cls-1" id="fullLogo-19" />
      <path
        d="M74.9,57.3c-.7,0-1.2-.2-1.6-.7-.4-.5-.6-1.1-.6-1.9s.2-1.4.6-1.9,1-.7,1.6-.7,1,.2,1.4.5c.4.3.6.7.7,1.2h-.6c0-.3-.3-.6-.5-.8-.3-.2-.6-.3-.9-.3s-.9.2-1.2.5c-.3.4-.4.9-.4,1.5s.1,1.1.4,1.5c.3.4.7.5,1.2.5s.7,0,.9-.3c.3-.2.4-.4.5-.7h.6c-.1.5-.4.9-.7,1.1-.4.3-.8.4-1.4.4h0Z"
        class="cls-1" id="fullLogo-20" />
      <path
        d="M80.8,52.2v3.2c0,.4.1.7.4.9.2.2.6.4,1,.4s.8-.1,1-.4c.2-.2.4-.6.4-.9v-3.2h.6v3.3c0,.5-.2,1-.5,1.3-.4.3-.8.5-1.4.5s-1.1-.2-1.4-.5c-.4-.3-.5-.8-.5-1.3v-3.3s.6,0,.6,0Z"
        class="cls-1" id="fullLogo-21" />
      <path
        d="M87.4,55.9h.6c0,.3.2.5.4.7.2.2.5.2.9.2s.6,0,.8-.2c.2-.2.3-.4.3-.6s0-.4-.2-.5c-.2-.1-.4-.2-.7-.3l-.6-.2c-.5-.1-.8-.3-1-.5-.2-.2-.3-.5-.3-.8s.2-.8.5-1c.3-.3.8-.4,1.3-.4s.9.1,1.2.4c.3.3.5.6.5,1h-.6c0-.3-.1-.5-.3-.6-.2-.2-.5-.2-.8-.2s-.6,0-.8.2c-.2.2-.3.4-.3.6s0,.3.2.5c.1.1.4.2.7.3h.5c.5.3.9.4,1.1.7.2.2.3.5.3.9s-.2.8-.5,1.1c-.3.3-.8.4-1.4.4s-1-.1-1.3-.4c-.3-.3-.5-.6-.5-1.1h0Z"
        class="cls-1" id="fullLogo-22" />
      <path d="M96.2,57.2h-.6v-4.4h-1.6v-.6h3.8v.6h-1.6v4.4h0Z" class="cls-1" id="fullLogo-23" />
      <path
        d="M101.3,52.9c.4-.5,1-.7,1.7-.7s1.3.2,1.7.7c.4.5.6,1.1.6,1.9s-.2,1.4-.6,1.9c-.4.5-1,.7-1.7.7s-1.3-.2-1.7-.7c-.4-.5-.6-1.1-.6-1.9s.2-1.4.6-1.9ZM104.2,53.3c-.3-.4-.7-.5-1.2-.5s-.9.2-1.2.5c-.3.4-.4.9-.4,1.5s.1,1.1.4,1.5c.3.4.7.5,1.2.5s.9-.2,1.2-.5c.3-.4.4-.9.4-1.5s-.1-1.1-.4-1.5Z"
        class="cls-1" id="fullLogo-24" />
      <path d="M113.5,52.2v5h-.6v-3.9h0l-1.6,3.8h-.5l-1.6-3.8h0v3.9h-.6v-5h.7l1.7,4.2h0l1.7-4.2h.7Z"
        class="cls-1" id="fullLogo-25" />
      <path d="M120,56.7v.6h-3.1v-5h3.1v.6h-2.5v1.6h2.3v.6h-2.3v1.7s2.5,0,2.5,0Z" class="cls-1"
        id="fullLogo-26" />
      <path
        d="M123.9,55.3v2h-.6v-5h1.9c.5,0,.9.1,1.2.4.3.3.4.6.4,1.1s0,.7-.3.9c-.2.3-.4.4-.7.5l1.2,2.1h-.7l-1.1-2s-1.2,0-1.2,0ZM123.9,52.8v1.9h1.2c.3,0,.6,0,.7-.2.2-.2.3-.4.3-.7s0-.5-.3-.7c-.2-.2-.4-.3-.8-.3h-1.2,0Z"
        class="cls-1" id="fullLogo-27" />
      <path
        d="M136.2,57.3c-.7,0-1.2-.2-1.6-.7-.4-.5-.6-1.1-.6-1.9s.2-1.4.6-1.9c.4-.5,1-.7,1.6-.7s1,.2,1.4.5c.4.3.6.7.7,1.2h-.6c0-.3-.3-.6-.5-.8-.3-.2-.6-.3-.9-.3s-.9.2-1.2.5c-.3.4-.4.9-.4,1.5s.1,1.1.4,1.5c.3.4.7.5,1.2.5s.7,0,.9-.3.4-.4.5-.7h.6c-.1.5-.4.9-.7,1.1-.4.3-.8.4-1.4.4h0Z"
        class="cls-1" id="fullLogo-28" />
      <path
        d="M141.9,52.9c.4-.5,1-.7,1.7-.7s1.3.2,1.7.7c.4.5.6,1.1.6,1.9s-.2,1.4-.6,1.9-1,.7-1.7.7-1.3-.2-1.7-.7c-.4-.5-.6-1.1-.6-1.9s.2-1.4.6-1.9ZM144.8,53.3c-.3-.4-.7-.5-1.2-.5s-.9.2-1.2.5c-.3.4-.4.9-.4,1.5s.1,1.1.4,1.5c.3.4.7.5,1.2.5s.9-.2,1.2-.5c.3-.4.4-.9.4-1.5s-.1-1.1-.4-1.5Z"
        class="cls-1" id="fullLogo-29" />
      <path d="M149.8,57.2h-.6v-5h.6l2.7,3.9h0v-3.9h.6v5h-.6l-2.7-3.9h0v3.9h0Z" class="cls-1"
        id="fullLogo-30" />
      <path d="M157.2,57.2h-.6v-5h.6l2.7,3.9h0v-3.9h.6v5h-.6l-2.7-3.9h0v3.9h0Z" class="cls-1"
        id="fullLogo-31" />
      <path d="M167.1,56.7v.6h-3.1v-5h3.1v.6h-2.5v1.6h2.3v.6h-2.3v1.7s2.5,0,2.5,0Z" class="cls-1"
        id="fullLogo-32" />
      <path
        d="M172.4,57.3c-.7,0-1.2-.2-1.6-.7-.4-.5-.6-1.1-.6-1.9s.2-1.4.6-1.9c.4-.5,1-.7,1.6-.7s1,.2,1.4.5c.4.3.6.7.7,1.2h-.6c0-.3-.3-.6-.5-.8-.3-.2-.6-.3-.9-.3s-.9.2-1.2.5c-.3.4-.4.9-.4,1.5s.1,1.1.4,1.5c.3.4.7.5,1.2.5s.7,0,.9-.3.4-.4.5-.7h.6c-.1.5-.4.9-.7,1.1-.4.3-.8.4-1.4.4h0Z"
        class="cls-1" id="fullLogo-33" />
      <path d="M179.6,57.2h-.6v-4.4h-1.6v-.6h3.8v.6h-1.6v4.4h0Z" class="cls-1" id="fullLogo-34" />
      <path d="M185,57.2h-.6v-5h.6v5Z" class="cls-1" id="fullLogo-35" />
      <path
        d="M188.8,52.9c.4-.5,1-.7,1.7-.7s1.3.2,1.7.7c.4.5.6,1.1.6,1.9s-.2,1.4-.6,1.9-1,.7-1.7.7-1.3-.2-1.7-.7c-.4-.5-.6-1.1-.6-1.9s.2-1.4.6-1.9ZM191.7,53.3c-.3-.4-.7-.5-1.2-.5s-.9.2-1.2.5c-.3.4-.4.9-.4,1.5s.1,1.1.4,1.5c.3.4.7.5,1.2.5s.9-.2,1.2-.5c.3-.4.4-.9.4-1.5s-.1-1.1-.4-1.5Z"
        class="cls-1" id="fullLogo-36" />
      <path d="M196.7,57.2h-.6v-5h.6l2.7,3.9h0v-3.9h.6v5h-.6l-2.7-3.9h0v3.9h0Z" class="cls-1"
        id="fullLogo-37" />
      <path
        d="M203.2,55.9h.6c0,.3.2.5.4.7.2.2.5.2.9.2s.6,0,.8-.2c.2-.2.3-.4.3-.6s0-.4-.2-.5-.4-.2-.7-.3l-.6-.2c-.5-.1-.8-.3-1-.5-.2-.2-.3-.5-.3-.8s.2-.8.5-1c.3-.3.8-.4,1.3-.4s.9.1,1.2.4c.3.3.5.6.5,1h-.6c0-.3-.1-.5-.3-.6-.2-.2-.5-.2-.8-.2s-.6,0-.8.2c-.2.2-.3.4-.3.6s0,.3.2.5c.1.1.4.2.7.3h.5c.5.3.9.4,1.1.7.2.2.3.5.3.9s-.2.8-.5,1.1c-.3.3-.8.4-1.4.4s-1-.1-1.3-.4c-.3-.3-.5-.6-.5-1.1h0Z"
        class="cls-1" id="fullLogo-38" />
      <a>
        <path
          d="M218.8,6.9c0-.1-.1-.2-.3-.2h-1c-.1,0-.2,0-.3.2l-2.3,5.3c0,0,0,.2.1.2h1c.1,0,.2,0,.3-.2l1.6-3.9,1.6,3.9c0,.1.1.2.3.2h1c0,0,.2,0,.1-.2l-2.3-5.3h0Z"
          class="cls-1" id="fullLogo-39" />
      </a>
      <path
        d="M223.8,12.2c0,.1,0,.2-.2.2h-.9c-.1,0-.2,0-.2-.2v-5.3c0-.1,0-.2.2-.2h.9c.1,0,.2,0,.2.2v5.3Z"
        class="cls-1" id="fullLogo-40" />
      <path
        d="M219.7,10.2c0,0,.1,0,.1.2v.9c0,.1,0,.2-.1.2h-3.4c0,0-.1,0-.1-.2v-.9c0-.1,0-.2.1-.2h3.4Z"
        class="cls-1" id="fullLogo-41" />
    </g>
  </g>
</svg>