<svg xmlns="http://www.w3.org/2000/svg" width="32" height="32" viewBox="0 0 32 32" fill="none">
  <path fill-rule="evenodd" clip-rule="evenodd" d="M10.1098 0H21.9778C27.5162 0 32.0436 4.52747 31.9997 10.0659V21.9341C31.9997 27.4725 27.4723 32 21.9338 32H10.0658C4.52743 32 0 27.4725 0 21.9341V10.0659C0 4.52747 4.52743 0 10.1098 0ZM9.58232 17.1868H14.4174C14.9889 17.1868 15.4724 16.7033 15.4724 16.1319C15.4724 15.5604 14.9889 15.0769 14.4174 15.0769H9.58232V10.4615C9.58232 9.89011 9.09881 9.40659 8.52739 9.40659C7.95597 9.40659 7.47245 9.89011 7.47245 10.4615V21.5824C7.47245 22.1538 7.95597 22.6374 8.52739 22.6374C9.09881 22.6374 9.58232 22.1538 9.58232 21.5824V17.1868ZM23.5163 22.6374C24.0877 22.6374 24.5712 22.1538 24.5712 21.5824H24.5674V10.4691C24.5712 10.4336 24.5731 10.3975 24.5731 10.361C24.5731 9.80393 24.1216 9.35237 23.5645 9.35237C23.2507 9.35237 22.9704 9.49569 22.7854 9.72044L22.7851 9.7192L17.4943 14.4615C17.0548 14.8571 17.0108 15.5165 17.4064 15.956C17.6262 16.1758 17.8899 16.3077 18.1976 16.3077C18.4614 16.3077 18.6811 16.2198 18.9009 16.044L22.4613 12.8352V21.5824C22.4613 22.1538 22.9448 22.6374 23.5163 22.6374Z" fill="#0A4B58"/>
</svg>
