<?xml version="1.0" encoding="UTF-8" standalone="no"?><!DOCTYPE svg PUBLIC "-//W3C//DTD SVG 1.1//EN" "http://www.w3.org/Graphics/SVG/1.1/DTD/svg11.dtd"><svg width="100%" height="100%" viewBox="0 0 43 48" version="1.1" xmlns="http://www.w3.org/2000/svg" xmlns:xlink="http://www.w3.org/1999/xlink" xml:space="preserve" xmlns:serif="http://www.serif.com/" style="fill-rule:evenodd;clip-rule:evenodd;stroke-linejoin:round;stroke-miterlimit:2;"><path d="M35.015,0l-32.18,0c-1.566,0 -2.835,1.269 -2.835,2.835l-0,42.132c-0,1.566 1.269,2.835 2.835,2.835c7.732,0 29.127,0 36.859,0c0.752,0 1.473,-0.299 2.004,-0.83c0.532,-0.532 0.831,-1.253 0.831,-2.005c-0,-9.176 -0,-37.478 -0,-37.478l-7.514,-7.489Z" style="fill:#a544c5;"/><path d="M23.852,15.915c-2.224,0 -4.089,0.743 -5.596,2.23c-1.506,1.487 -2.259,3.631 -2.259,6.432c0,2.776 0.727,4.898 2.18,6.364c1.453,1.467 3.34,2.201 5.66,2.201c1.366,-0 2.521,-0.184 3.466,-0.55c0.944,-0.367 1.776,-0.78 2.493,-1.241c0.469,0.29 0.839,0.63 1.111,1.017c0.271,0.387 0.407,0.86 0.407,1.418c0,1.109 -0.723,2.03 -2.169,2.763c-1.447,0.734 -3.32,1.1 -5.619,1.1c-2.577,0 -4.862,-0.48 -6.857,-1.442c-1.995,-0.961 -3.553,-2.413 -4.673,-4.355c-1.12,-1.943 -1.68,-4.367 -1.68,-7.275c-0,-2.931 0.59,-5.375 1.77,-7.33c1.18,-1.955 2.766,-3.423 4.756,-4.405c1.99,-0.982 4.167,-1.472 6.533,-1.472c2.28,-0 4.13,0.395 5.551,1.187c1.422,0.791 2.132,1.733 2.132,2.826c0,0.493 -0.133,0.936 -0.4,1.328c-0.268,0.392 -0.6,0.711 -0.999,0.957c-0.728,-0.461 -1.547,-0.868 -2.459,-1.222c-0.912,-0.354 -2.028,-0.531 -3.348,-0.531Z" style="fill:#fff;fill-rule:nonzero;"/><path d="M35.015,6.638c-0,0.226 0.089,0.442 0.249,0.602c0.159,0.159 0.375,0.249 0.601,0.249c1.967,-0 6.664,-0 6.664,-0l-7.514,-7.489l-0,6.638Z" style="fill:#e8a4ff;fill-rule:nonzero;"/></svg>